<svg width="40" height="40" viewBox="0 0 40 40" fill="none" xmlns="http://www.w3.org/2000/svg">
<path d="M37.4021 21.3324L13.1641 34.6718C11.8354 35.4031 10.1653 34.9187 9.43403 33.5899L2.04784 20.1691C1.31655 18.8403 1.8009 17.1703 3.12968 16.439L27.3676 3.0996C28.6964 2.3683 30.3664 2.85266 31.0977 4.18144L38.4839 17.6023C39.2152 18.9311 38.7309 20.6011 37.4021 21.3324Z" fill="#0C5295"/>
<path d="M36.8728 20.3705L12.6348 33.7099C11.3061 34.4412 9.63603 33.9568 8.90473 32.628L1.51855 19.2072C0.78725 17.8784 1.27161 16.2084 2.60039 15.4771L26.8383 2.13769C28.1671 1.40639 29.8371 1.89075 30.5684 3.21953L37.9546 16.6404C38.6859 17.9692 38.2016 19.6392 36.8728 20.3705Z" fill="white"/>
<path d="M26.8383 2.13791L2.60039 15.4773C1.2716 16.2086 0.787257 17.8787 1.51854 19.2074L8.90474 32.6283C8.90474 32.6283 2.02228 19.466 29.2888 2.0425C28.5288 1.70103 27.6245 1.70526 26.8383 2.13791Z" fill="#0C5295"/>
<path d="M3.68904 20.8531L4.61654 22.5384C4.85034 22.9632 5.38425 23.118 5.80907 22.8842L31.3784 8.81214C31.8032 8.57834 31.958 8.04443 31.7242 7.61961L30.7967 5.93432C30.5629 5.5095 30.029 5.35465 29.6042 5.58845L4.0349 19.6606C3.61009 19.8944 3.45524 20.4283 3.68904 20.8531Z" fill="#1D2943"/>
<path d="M3.43122 20.3859L4.35873 22.0712C4.59253 22.496 5.12644 22.6509 5.55126 22.4171L31.1206 8.34497C31.5454 8.11118 31.7002 7.57727 31.4664 7.15245L30.5389 5.46716C30.3051 5.04234 29.7712 4.88749 29.3464 5.12129L3.77709 19.1934C3.35228 19.4272 3.19743 19.9611 3.43122 20.3859Z" fill="#4C5C75"/>
<path d="M33.0199 38.2031L5.3537 38.2031C3.83698 38.2031 2.60743 36.9736 2.60743 35.4568L2.60742 20.1378C2.60742 18.621 3.83697 17.3915 5.3537 17.3915L33.0199 17.3915C34.5366 17.3915 35.7662 18.621 35.7662 20.1378L35.7662 35.4568C35.7662 36.9736 34.5366 38.2031 33.0199 38.2031Z" fill="#0C5295"/>
<path d="M5.3537 37.1052L33.0199 37.1052C34.5366 37.1052 35.7662 35.8757 35.7662 34.3589L35.7662 19.0399C35.7662 17.5231 34.5366 16.2936 33.0199 16.2936L5.3537 16.2936C3.83698 16.2936 2.60743 17.5231 2.60743 19.0399L2.60742 34.3589C2.60742 35.8757 3.83697 37.1052 5.3537 37.1052Z" fill="#97CBFD"/>
<path d="M5.35297 16.2936L33.0192 16.2936C34.5359 16.2936 35.7654 17.5232 35.7654 19.0399L35.7654 34.359C35.7654 34.359 35.4488 19.5093 3.16016 17.3915C3.6613 16.7259 4.45564 16.2936 5.35297 16.2936Z" fill="#0C5295"/>
<path d="M33.6132 32.1763V32.6025H33.6075C33.6186 33.1789 33.1378 33.6631 32.5582 33.6631L29.7718 33.6631C29.2025 33.6631 28.7112 33.1878 28.7225 32.6025H28.7168V32.1763H28.7849C28.9494 31.7622 29.3975 31.4786 29.8682 31.4786L32.4618 31.4786C32.9325 31.4786 33.3806 31.7622 33.5451 32.1763H33.6132Z" fill="#E3E7F0"/>
<path d="M32.555 33.24L29.8615 33.2401C29.3188 33.2401 28.8059 32.8716 28.7298 32.3343C28.637 31.68 29.143 31.1186 29.7795 31.1186L32.4624 31.1185C33.0379 31.1185 33.5739 31.5361 33.6089 32.1106C33.6478 32.7482 33.1436 33.24 32.555 33.24Z" fill="white"/>
<path d="M25.6269 32.1763V32.6025H25.6212C25.6323 33.1789 25.1515 33.6631 24.5719 33.6631L21.7854 33.6631C21.2161 33.6631 20.7249 33.1878 20.7361 32.6025H20.7305V32.1763H20.7985C20.963 31.7622 21.4111 31.4786 21.8818 31.4786L24.4754 31.4786C24.9462 31.4786 25.3943 31.7622 25.5588 32.1763H25.6269Z" fill="#E3E7F0"/>
<path d="M24.5687 33.24L21.8751 33.2401C21.3325 33.2401 20.8196 32.8716 20.7434 32.3343C20.6507 31.68 21.1567 31.1186 21.7932 31.1186L24.4761 31.1185C25.0516 31.1185 25.5875 31.5361 25.6226 32.1106C25.6615 32.7482 25.1573 33.24 24.5687 33.24Z" fill="white"/>
<path d="M17.6386 32.1763V32.6025H17.6329C17.644 33.1789 17.1632 33.6631 16.5836 33.6631H13.7972C13.2278 33.6631 12.7366 33.1878 12.7479 32.6025H12.7422V32.1763H12.8102C12.9748 31.7622 13.4229 31.4786 13.8935 31.4786H16.4872C16.9579 31.4786 17.406 31.7622 17.5705 32.1763H17.6386Z" fill="#E3E7F0"/>
<path d="M16.5804 33.24L13.8869 33.2401C13.3442 33.2401 12.8313 32.8716 12.7551 32.3343C12.6624 31.68 13.1684 31.1186 13.8049 31.1186L16.4878 31.1185C17.0633 31.1185 17.5993 31.5361 17.6343 32.1106C17.6732 32.7482 17.169 33.24 16.5804 33.24Z" fill="white"/>
<path d="M9.65421 32.1763V32.6025H9.64853C9.65963 33.1789 9.17883 33.6631 8.59923 33.6631L5.81279 33.6631C5.24347 33.6631 4.75222 33.1878 4.76349 32.6025H4.75781V32.1763H4.82587C4.99038 31.7622 5.43849 31.4786 5.90917 31.4786L8.50278 31.4786C8.97353 31.4786 9.42164 31.7622 9.58614 32.1763H9.65421Z" fill="#E3E7F0"/>
<path d="M8.59603 33.24L5.90249 33.2401C5.3598 33.2401 4.84696 32.8716 4.77077 32.3343C4.678 31.68 5.18406 31.1186 5.82051 31.1186L8.50346 31.1185C9.07895 31.1185 9.61489 31.5361 9.64993 32.1106C9.68883 32.7482 9.18466 33.24 8.59603 33.24Z" fill="white"/>
<path d="M4.76172 21.1328L4.76172 23.6954C4.76172 24.3413 5.28538 24.865 5.93134 24.865L10.7298 24.865C11.3757 24.865 11.8994 24.3413 11.8994 23.6954L11.8994 21.1328C11.8994 20.4868 11.3757 19.9631 10.7298 19.9631L5.93133 19.9631C5.28537 19.9632 4.76172 20.4868 4.76172 21.1328Z" fill="#0C5295"/>
<path d="M4.76172 20.7335L4.76172 23.2961C4.76172 23.942 5.28537 24.4657 5.93134 24.4657L10.7298 24.4657C11.3757 24.4657 11.8994 23.942 11.8994 23.2961V20.7335C11.8994 20.0875 11.3757 19.5638 10.7298 19.5638L5.93133 19.5639C5.28537 19.5639 4.76172 20.0875 4.76172 20.7335Z" fill="white"/>
<path d="M8.20624 21.7383V19.5638H7.65069V21.7383H4.76172V22.2938H6.34227V24.4657H6.89783V22.2938H9.39929V24.4657H9.95482V22.2938H11.8994V21.7383H8.20624Z" fill="#0C5295"/>
<path d="M33.1063 23.6566L29.9785 23.6567C29.7178 23.6567 29.4716 23.4797 29.435 23.2217C29.3904 22.9074 29.6334 22.6378 29.9391 22.6378L33.0618 22.6378C33.3382 22.6378 33.5956 22.8384 33.6124 23.1142C33.6311 23.4204 33.389 23.6566 33.1063 23.6566Z" fill="white"/>
<path d="M33.1066 21.4759L27.6152 21.4759C27.3546 21.4759 27.1083 21.2989 27.0717 21.0409C27.0271 20.7267 27.2702 20.4571 27.5758 20.4571L33.0621 20.457C33.3385 20.457 33.5959 20.6576 33.6127 20.9334C33.6314 21.2397 33.3893 21.4758 33.1066 21.4759Z" fill="white"/>
<path d="M32.2734 9.60022C33.5808 11.2779 34.6494 13.1011 35.4681 15.0644C34.1588 13.3881 33.0941 11.5625 32.2734 9.60022Z" fill="white"/>
<path d="M7.91016 15.0632C9.81539 13.6053 11.8672 12.3856 14.0612 11.4147C12.1572 12.8745 10.103 14.0902 7.91016 15.0632Z" fill="white"/>
<path d="M23.6445 35.7264C26.0268 35.4446 28.4137 35.4422 30.7959 35.7264C28.4137 36.0106 26.0268 36.0083 23.6445 35.7264Z" fill="white"/>
</svg>
