<svg width="20" height="17" viewBox="0 0 20 17" fill="none" xmlns="http://www.w3.org/2000/svg">
<path d="M19.6803 7.54221L12.4576 0.319347C12.2514 0.11317 11.9766 0 11.6836 0C11.3903 0 11.1157 0.113332 10.9095 0.319347L10.2537 0.975276C10.0477 1.18113 9.93423 1.45609 9.93423 1.74925C9.93423 2.04226 10.0477 2.32648 10.2537 2.53234L14.4674 6.75523H1.08048C0.476907 6.75523 0 7.22774 0 7.83148V8.75879C0 9.36252 0.476907 9.88268 1.08048 9.88268H14.5152L10.2539 14.1291C10.0479 14.3353 9.93439 14.6028 9.93439 14.896C9.93439 15.1888 10.0479 15.4602 10.2539 15.6662L10.9097 16.32C11.1158 16.5262 11.3905 16.6386 11.6838 16.6386C11.9768 16.6386 12.2516 16.5247 12.4578 16.3186L19.6805 9.09586C19.8872 8.88903 20.0008 8.61294 20 8.31944C20.0006 8.02497 19.8872 7.74872 19.6803 7.54221Z" fill="#0C5295"/>
</svg>
