<svg width="30" height="30" viewBox="0 0 30 30" fill="none" xmlns="http://www.w3.org/2000/svg">
<g clip-path="url(#clip0_458_3185)">
<path d="M29.9886 14.3458C29.9321 13.8143 29.6721 13.3373 29.2396 12.9888L26.5001 10.9613V5.99989H22.5002V8.00136L15.0298 2.47345L0.781069 12.5003C0.357576 12.8258 0.0860803 13.2973 0.0170814 13.8268C-0.0519174 14.3568 0.0895802 14.8812 0.415075 15.3047C1.08806 16.1787 2.34504 16.3427 3.19953 15.6857L3.50052 15.4772V16.6757C2.91153 16.9577 2.50054 17.5547 2.50054 18.2502C2.50054 18.9457 2.91153 19.5427 3.50052 19.8247V21.6756C2.91153 21.9576 2.50054 22.5546 2.50054 23.2501C2.50054 23.9456 2.91153 24.5426 3.50052 24.8246V26.6755C2.91153 26.9575 2.50054 27.5545 2.50054 28.25C2.50054 29.215 3.28553 30 4.25051 30H11.5004H12.5004H17.5003H18.5003H25.7502C26.7151 30 27.5001 29.215 27.5001 28.25C27.5001 27.371 26.8461 26.648 26.0001 26.5255V24.9746C26.8461 24.8521 27.5001 24.1291 27.5001 23.2501C27.5001 22.3711 26.8461 21.6481 26.0001 21.5256V19.9747C26.8461 19.8522 27.5001 19.1292 27.5001 18.2502C27.5001 17.3712 26.8461 16.6482 26.0001 16.5257V15.5722L26.7536 16.1217C27.1206 16.4147 27.5601 16.5567 27.9976 16.5567C28.5816 16.5567 29.1611 16.3027 29.5561 15.8142C29.8916 15.3987 30.0456 14.8772 29.9886 14.3458ZM23.5002 7.00037H25.5002V10.2213L23.5002 8.74134V7.00037ZM11.5004 25.0001V26.5001H4.50051V25.0001H11.5004ZM4.50051 21.5001V20.0002H11.5004V21.5001H4.50051ZM4.25051 22.5001H11.5004V24.0001H4.25051C3.83702 24.0001 3.50052 23.6636 3.50052 23.2501C3.50052 22.8366 3.83702 22.5001 4.25051 22.5001ZM11.5004 29H4.25051C3.83702 29 3.50052 28.6635 3.50052 28.25C3.50052 27.8365 3.83702 27.5 4.25051 27.5H11.5004V29ZM17.5003 29H12.5004V27V26.5001V25.0001V24.5001V22.0001V21.5001V20.0002H17.5003V21.5001V22.0001V24.5001V25.0001V26.5001V27V29ZM18.5003 21.5001V20.0002H25.0002V21.5001H18.5003ZM18.5003 26.5001V25.0001H25.0002V26.5001H18.5003ZM26.5001 28.25C26.5001 28.6635 26.1636 29 25.7502 29H18.5003V27.5H25.7502C26.1636 27.5 26.5001 27.8365 26.5001 28.25ZM26.5001 23.2501C26.5001 23.6636 26.1636 24.0001 25.7502 24.0001H18.5003V22.5001H25.7502C26.1636 22.5001 26.5001 22.8366 26.5001 23.2501ZM26.5001 18.2502C26.5001 18.6637 26.1636 19.0002 25.7502 19.0002H18.5003H11.5004H4.25051C3.83702 19.0002 3.50052 18.6637 3.50052 18.2502C3.50052 17.8367 3.83702 17.5002 4.25051 17.5002H12.0004H18.0003H25.7502C26.1636 17.5002 26.5001 17.8367 26.5001 18.2502ZM17.0003 16.5002H15.5003V15.0002H17.0003V16.5002ZM17.0003 14.0003H15.5003V12.5003H17.0003V14.0003ZM14.5003 14.0003H13.0004V12.5003H14.5003V14.0003ZM13.0004 15.0002H14.5003V16.5002H13.0004V15.0002ZM20.0002 15.0002H25.0002V16.5002H18.0003V11.5003H12.0004V16.5002H4.50051V15.0002H10.0004C10.2769 15.0002 10.5004 14.7767 10.5004 14.5002C10.5004 14.2238 10.2769 14.0003 10.0004 14.0003H5.63049L7.79395 12.5003H10.5004V11.5003H9.23643L11.3999 10.0003H18.3643L19.5623 10.8743L20.4202 11.5003H19.5008V12.5003H21.7907L23.8467 14.0003H20.0007C19.7243 14.0003 19.5008 14.2238 19.5008 14.5002C19.5008 14.7767 19.7238 15.0002 20.0002 15.0002ZM12.8419 9.00034L14.9708 7.52437L16.9938 9.00034H12.8419ZM28.7776 15.1862C28.4316 15.6142 27.8001 15.6827 27.3711 15.3357L25.9711 14.3143L25.5432 14.0003H25.5412L23.4857 12.5003H23.4867L18.6898 9.00034L14.9848 6.29689L11.0864 9.00034L6.03848 12.5003H6.03948L3.84502 14.0218L3.84202 14.0223L3.66502 14.1468L2.61004 14.8782C2.17205 15.2142 1.54306 15.1322 1.20756 14.6957C1.04456 14.4837 0.974065 14.2213 1.00856 13.9563C1.04306 13.6913 1.17906 13.4558 1.37306 13.3053L15.0153 3.70693L22.5002 9.24534L23.5987 10.0583L28.6286 13.7803C28.8361 13.9478 28.9666 14.1868 28.9941 14.4523C29.0226 14.7172 28.9456 14.9782 28.7776 15.1862Z" fill="#0C5295"/>
<path d="M13.5 25.0001C13.7761 25.0001 14 24.7762 14 24.5001C14 24.2239 13.7761 24.0001 13.5 24.0001C13.2239 24.0001 13 24.2239 13 24.5001C13 24.7762 13.2239 25.0001 13.5 25.0001Z" fill="#0C5295"/>
<path d="M23.5 5.50042C23.63 5.50042 23.76 5.44542 23.855 5.35542C23.945 5.26042 24 5.13042 24 5.00043C24 4.87043 23.945 4.73993 23.855 4.64543C23.67 4.46043 23.33 4.46043 23.145 4.64543C23.0545 4.73993 23 4.87043 23 5.00043C23 5.13042 23.0545 5.26042 23.145 5.35542C23.2395 5.44492 23.37 5.50042 23.5 5.50042Z" fill="#0C5295"/>
<path d="M25.5 5.50041C25.7765 5.50041 26 5.27691 26 5.00042V3.00045C26 2.72395 25.7765 2.50046 25.5 2.50046C25.2235 2.50046 25 2.72395 25 3.00045V5.00042C25 5.27641 25.2235 5.50041 25.5 5.50041Z" fill="#0C5295"/>
<path d="M25.5 2.00045C25.7765 2.00045 26 1.77696 26 1.50046V0.50048C26 0.223985 25.7765 0.000488281 25.5 0.000488281C25.2235 0.000488281 25 0.223985 25 0.50048V1.50046C25 1.77646 25.2235 2.00045 25.5 2.00045Z" fill="#0C5295"/>
<path d="M23.5 4.00042C23.7765 4.00042 24 3.77693 24 3.50043V2.50045C24 2.22395 23.7765 2.00046 23.5 2.00046C23.2235 2.00046 23 2.22395 23 2.50045V3.50043C23 3.77643 23.2235 4.00042 23.5 4.00042Z" fill="#0C5295"/>
<path d="M23.5 1.50046C23.7765 1.50046 24 1.27697 24 1.00047V0.50048C24 0.223985 23.7765 0.000488281 23.5 0.000488281C23.2235 0.000488281 23 0.223985 23 0.50048V1.00047C23 1.27647 23.2235 1.50046 23.5 1.50046Z" fill="#0C5295"/>
</g>
<defs>
<clipPath id="clip0_458_3185">
<rect width="30" height="30" fill="white"/>
</clipPath>
</defs>
</svg>
