<svg width="25" height="25" viewBox="0 0 25 25" fill="none" xmlns="http://www.w3.org/2000/svg">
<path d="M7.81185 2.60417C7.81185 2.02887 7.34548 1.5625 6.77018 1.5625C6.19489 1.5625 5.72852 2.02887 5.72852 2.60417V3.64583C5.72852 4.22113 6.19489 4.6875 6.77018 4.6875C7.34548 4.6875 7.81185 4.22113 7.81185 3.64583V2.60417Z" fill="#0C5295"/>
<path d="M19.2708 2.60417C19.2708 2.02887 18.8045 1.5625 18.2292 1.5625C17.6539 1.5625 17.1875 2.02887 17.1875 2.60417V3.64583C17.1875 4.22113 17.6539 4.6875 18.2292 4.6875C18.8045 4.6875 19.2708 4.22113 19.2708 3.64583V2.60417Z" fill="#0C5295"/>
<path d="M2.08398 9.375V21.3542C2.08398 22.5047 3.0168 23.4375 4.16732 23.4375H20.834C21.9845 23.4375 22.9173 22.5047 22.9173 21.3542V9.375H2.08398ZM8.33398 19.7917C8.33398 20.3672 7.86784 20.8333 7.29232 20.8333H6.25065C5.67513 20.8333 5.20898 20.3672 5.20898 19.7917V18.75C5.20898 18.1745 5.67513 17.7083 6.25065 17.7083H7.29232C7.86784 17.7083 8.33398 18.1745 8.33398 18.75V19.7917ZM8.33398 14.0625C8.33398 14.638 7.86784 15.1042 7.29232 15.1042H6.25065C5.67513 15.1042 5.20898 14.638 5.20898 14.0625V13.0208C5.20898 12.4453 5.67513 11.9792 6.25065 11.9792H7.29232C7.86784 11.9792 8.33398 12.4453 8.33398 13.0208V14.0625ZM14.0632 19.7917C14.0632 20.3672 13.597 20.8333 13.0215 20.8333H11.9798C11.4043 20.8333 10.9382 20.3672 10.9382 19.7917V18.75C10.9382 18.1745 11.4043 17.7083 11.9798 17.7083H13.0215C13.597 17.7083 14.0632 18.1745 14.0632 18.75V19.7917ZM14.0632 14.0625C14.0632 14.638 13.597 15.1042 13.0215 15.1042H11.9798C11.4043 15.1042 10.9382 14.638 10.9382 14.0625V13.0208C10.9382 12.4453 11.4043 11.9792 11.9798 11.9792H13.0215C13.597 11.9792 14.0632 12.4453 14.0632 13.0208V14.0625ZM19.7923 19.7917C19.7923 20.3672 19.3262 20.8333 18.7507 20.8333H17.709C17.1335 20.8333 16.6673 20.3672 16.6673 19.7917V18.75C16.6673 18.1745 17.1335 17.7083 17.709 17.7083H18.7507C19.3262 17.7083 19.7923 18.1745 19.7923 18.75V19.7917ZM19.7923 14.0625C19.7923 14.638 19.3262 15.1042 18.7507 15.1042H17.709C17.1335 15.1042 16.6673 14.638 16.6673 14.0625V13.0208C16.6673 12.4453 17.1335 11.9792 17.709 11.9792H18.7507C19.3262 11.9792 19.7923 12.4453 19.7923 13.0208V14.0625Z" fill="#0C5295"/>
<path d="M22.9173 8.33333V5.20833C22.9173 4.05781 21.9845 3.125 20.834 3.125H20.3132V3.64583C20.3132 4.79479 19.3788 5.72917 18.2298 5.72917C17.0809 5.72917 16.1465 4.79479 16.1465 3.64583V3.125H8.85482V3.64583C8.85482 4.79479 7.92044 5.72917 6.77148 5.72917C5.62253 5.72917 4.68815 4.79479 4.68815 3.64583V3.125H4.16732C3.0168 3.125 2.08398 4.05781 2.08398 5.20833V8.33333H22.9173Z" fill="#0C5295"/>
</svg>
