<svg width="9" height="9" viewBox="0 0 9 9" fill="none" xmlns="http://www.w3.org/2000/svg">
<path d="M0.753744 8.39961C0.634496 8.39903 0.517073 8.37027 0.411052 8.31569C0.305031 8.2611 0.213415 8.18222 0.143675 8.08549C0.0739354 7.98876 0.0280477 7.87692 0.00975459 7.75908C-0.00853857 7.64124 0.00128091 7.52075 0.0384121 7.40743L0.399947 6.33271C0.44248 6.21266 0.438337 6.08101 0.38834 5.96387C-0.025843 5.06883 -0.111849 4.05659 0.145391 3.1045C0.402632 2.15242 0.986712 1.32122 1.79529 0.756555C2.60386 0.191892 3.58536 -0.0702225 4.56779 0.0161412C5.55023 0.102505 6.47094 0.531838 7.1686 1.22891C7.86626 1.92598 8.29636 2.84634 8.38355 3.8287C8.47074 4.81106 8.20944 5.79278 7.64546 6.60182C7.08147 7.41087 6.25077 7.99565 5.2989 8.25369C4.34703 8.51173 3.33471 8.42657 2.43933 8.01314C2.31993 7.96171 2.18542 7.95771 2.06318 8.00196L0.993191 8.36135C0.915933 8.38682 0.835092 8.39973 0.753744 8.39961ZM4.19284 0.661642C3.59786 0.660438 3.01218 0.809193 2.48989 1.09417C1.96759 1.37914 1.52554 1.79114 1.20456 2.2921C0.883575 2.79307 0.694016 3.36685 0.653392 3.96044C0.612768 4.55403 0.722388 5.14828 0.972126 5.68831C1.09197 5.95433 1.10641 6.25592 1.01254 6.53218L0.650141 7.61205C0.643565 7.63102 0.642665 7.65149 0.647552 7.67097C0.652439 7.69044 0.6629 7.70806 0.677654 7.72167C0.691466 7.73641 0.709238 7.74684 0.728837 7.75172C0.748435 7.75661 0.769025 7.75572 0.788135 7.74919L1.86285 7.38851C2.14157 7.29243 2.44652 7.30689 2.71489 7.42892C3.19648 7.64984 3.72146 7.76 4.25123 7.75129C4.781 7.74257 5.30208 7.61521 5.77614 7.37858C6.25021 7.14194 6.66519 6.80204 6.99058 6.38388C7.31596 5.96572 7.54348 5.47994 7.65638 4.96227C7.76928 4.44459 7.7647 3.9082 7.64297 3.39253C7.52125 2.87686 7.28547 2.39503 6.95299 1.98249C6.62051 1.56995 6.19978 1.23719 5.72174 1.00868C5.24371 0.780176 4.72053 0.661735 4.19069 0.662072L4.19284 0.661642ZM4.62917 2.91898C4.62917 2.80496 4.58388 2.69562 4.50326 2.615C4.42264 2.53438 4.3133 2.48909 4.19929 2.48909H4.19499C4.11015 2.48994 4.02747 2.51587 3.95734 2.56362C3.88721 2.61137 3.83278 2.6788 3.8009 2.75742C3.76902 2.83605 3.76112 2.92234 3.77819 3.00545C3.79526 3.08855 3.83654 3.16475 3.89683 3.22444C3.95712 3.28413 4.03372 3.32465 4.11699 3.34089C4.20026 3.35713 4.28647 3.34837 4.36478 3.31571C4.44308 3.28305 4.50996 3.22796 4.55701 3.15736C4.60406 3.08676 4.62917 3.00382 4.62917 2.91898ZM4.5131 5.4983V4.20864C4.5131 4.12313 4.47914 4.04112 4.41867 3.98066C4.35821 3.92019 4.2762 3.88622 4.19069 3.88622C4.10518 3.88622 4.02317 3.92019 3.96271 3.98066C3.90224 4.04112 3.86827 4.12313 3.86827 4.20864V5.4983C3.86827 5.58381 3.90224 5.66582 3.96271 5.72628C4.02317 5.78675 4.10518 5.82071 4.19069 5.82071C4.2762 5.82071 4.35821 5.78675 4.41867 5.72628C4.47914 5.66582 4.5131 5.58381 4.5131 5.4983Z" fill="#0CA289"/>
</svg>
