<svg width="30" height="30" viewBox="0 0 30 30" fill="none" xmlns="http://www.w3.org/2000/svg">
<path d="M4.58203 13.8897C4.06427 13.8911 3.5575 14.0392 3.12035 14.3166C2.6832 14.5941 2.33354 14.9896 2.11181 15.4575C1.89009 15.9254 1.80536 16.4465 1.86744 16.9605C1.92951 17.4745 2.13585 17.9605 2.46259 18.3621L9.42778 26.8945C9.67612 27.2028 9.99446 27.4475 10.3563 27.6081C10.7182 27.7688 11.1132 27.8407 11.5085 27.8181C12.3539 27.7727 13.1172 27.3204 13.6038 26.5768L28.0723 3.27534C28.0747 3.27148 28.0772 3.26761 28.0797 3.26381C28.2155 3.05536 28.1714 2.64229 27.8912 2.38279C27.8142 2.31153 27.7235 2.25678 27.6246 2.22191C27.5256 2.18705 27.4206 2.17281 27.316 2.18006C27.2113 2.18732 27.1093 2.21593 27.0161 2.26412C26.9229 2.31231 26.8406 2.37906 26.7742 2.46027C26.769 2.46665 26.7636 2.47294 26.7581 2.47913L12.1665 18.9655C12.111 19.0283 12.0435 19.0793 11.9681 19.1158C11.8927 19.1522 11.8108 19.1733 11.7271 19.1779C11.6434 19.1824 11.5597 19.1703 11.4808 19.1421C11.4019 19.114 11.3293 19.0705 11.2674 19.0142L6.42466 14.6073C5.92171 14.1462 5.26433 13.8902 4.58203 13.8897Z" fill="#0CA289"/>
</svg>
