<svg width="30" height="30" viewBox="0 0 30 30" fill="none" xmlns="http://www.w3.org/2000/svg">
<path fill-rule="evenodd" clip-rule="evenodd" d="M15.004 1.88251C22.2515 1.88251 28.1291 7.76008 28.1291 15.0076C28.1291 22.2551 22.2515 28.1327 15.004 28.1327C7.75648 28.1327 1.87891 22.2551 1.87891 15.0076C1.87891 7.76008 7.75648 1.88251 15.004 1.88251ZM12.2784 19.2707L9.06506 16.0547C8.51762 15.5069 8.5175 14.6137 9.06506 14.066C9.61273 13.5185 10.51 13.5219 11.0536 14.066L13.319 16.3332L18.9545 10.6977C19.5022 10.15 20.3956 10.15 20.9431 10.6977C21.4908 11.2452 21.49 12.1394 20.9431 12.6863L14.3117 19.3177C13.7648 19.8646 12.8707 19.8653 12.3231 19.3177C12.3077 19.3023 12.2929 19.2867 12.2784 19.2707Z" fill="#0C5295"/>
</svg>
