<svg width="22" height="22" viewBox="0 0 22 22" fill="none" xmlns="http://www.w3.org/2000/svg">
<g id="coin 1" clip-path="url(#clip0_299_3827)">
<g id="layer2">
<path id="path824" d="M11 0.6875C5.31271 0.6875 0.6875 5.31271 0.6875 11C0.6875 16.6873 5.31271 21.3125 11 21.3125C16.6873 21.3125 21.3125 16.6873 21.3125 11C21.3125 5.31271 16.6873 0.6875 11 0.6875ZM11 2.0625C15.9442 2.0625 19.9429 6.05581 19.9429 11C19.9429 15.9442 15.9442 19.9429 11 19.9429C6.05581 19.9429 2.0625 15.9442 2.0625 11C2.0625 6.05581 6.05581 2.0625 11 2.0625ZM10.9906 5.50403C10.809 5.50723 10.636 5.58217 10.5094 5.7125C10.3829 5.84283 10.313 6.01794 10.3152 6.19958V6.77832C9.20511 6.98657 8.25537 7.70138 8.25537 8.94018C8.25537 9.79956 8.64278 10.4946 9.16308 10.8993C9.68339 11.304 10.2709 11.4834 10.7865 11.6553C11.3021 11.8271 11.7472 11.9915 12.0004 12.1884C12.2535 12.3852 12.375 12.5509 12.375 13.0665C12.375 14.2124 9.63037 14.2124 9.63037 13.0665C9.6324 12.975 9.61612 12.8839 9.58248 12.7987C9.54885 12.7135 9.49853 12.6359 9.43449 12.5704C9.37045 12.505 9.29397 12.4529 9.20955 12.4174C9.12513 12.3819 9.03446 12.3636 8.94287 12.3636C8.85128 12.3636 8.76061 12.3819 8.67619 12.4174C8.59177 12.4529 8.51529 12.505 8.45125 12.5704C8.38721 12.6359 8.33689 12.7135 8.30326 12.7987C8.26962 12.8839 8.25334 12.975 8.25537 13.0665C8.25537 14.3044 9.20595 15.0205 10.3152 15.2297V15.8058C10.3132 15.8974 10.3294 15.9884 10.3631 16.0736C10.3967 16.1588 10.447 16.2364 10.5111 16.3019C10.5751 16.3673 10.6516 16.4194 10.736 16.4549C10.8204 16.4904 10.9111 16.5087 11.0027 16.5087C11.0943 16.5087 11.1849 16.4904 11.2694 16.4549C11.3538 16.4194 11.4303 16.3673 11.4943 16.3019C11.5583 16.2364 11.6087 16.1588 11.6423 16.0736C11.6759 15.9884 11.6922 15.8974 11.6902 15.8058V15.2297C12.7996 15.0206 13.7513 14.3045 13.7513 13.0665C13.7513 12.2072 13.3626 11.5121 12.8423 11.1074C12.322 10.7027 11.7345 10.522 11.2189 10.3501C10.7032 10.1782 10.2581 10.0152 10.005 9.81836C9.75187 9.62147 9.63037 9.45581 9.63037 8.94018C9.63037 7.79435 12.375 7.79435 12.375 8.94018C12.375 9.1227 12.4475 9.29774 12.5766 9.4268C12.7056 9.55585 12.8807 9.62836 13.0632 9.62836C13.2457 9.62836 13.4207 9.55585 13.5498 9.4268C13.6788 9.29774 13.7513 9.1227 13.7513 8.94018C13.7513 7.70324 12.7993 6.98914 11.6902 6.77966V6.19958C11.6913 6.1076 11.6739 6.01634 11.6391 5.93119C11.6042 5.84605 11.5527 5.76876 11.4874 5.7039C11.4222 5.63905 11.3446 5.58794 11.2593 5.55361C11.1739 5.51927 11.0826 5.50241 10.9906 5.50403Z" fill="#0C5295"/>
</g>
</g>
<defs>
<clipPath id="clip0_299_3827">
<rect width="22" height="22" fill="white"/>
</clipPath>
</defs>
</svg>
