<svg width="12" height="12" viewBox="0 0 12 12" fill="none" xmlns="http://www.w3.org/2000/svg">
<g clip-path="url(#clip0_201_38)">
<path d="M6 0.375C2.89784 0.375 0.375 2.89784 0.375 6C0.375 9.10216 2.89784 11.625 6 11.625C9.10216 11.625 11.625 9.10216 11.625 6C11.625 2.89784 9.10216 0.375 6 0.375ZM6 1.125C8.69683 1.125 10.8779 3.30317 10.8779 6C10.8779 8.69683 8.69683 10.8779 6 10.8779C3.30317 10.8779 1.125 8.69683 1.125 6C1.125 3.30317 3.30317 1.125 6 1.125ZM5.99487 3.0022C5.8958 3.00394 5.80145 3.04482 5.73242 3.11591C5.66339 3.187 5.6253 3.28251 5.62646 3.38159V3.69727C5.02097 3.81085 4.50293 4.20075 4.50293 4.87646C4.50293 5.34521 4.71425 5.72433 4.99805 5.94507C5.28185 6.1658 5.60229 6.26367 5.88354 6.35742C6.16479 6.45117 6.40758 6.5408 6.54565 6.64819C6.68373 6.75558 6.75 6.84595 6.75 7.1272C6.75 7.7522 5.25293 7.7522 5.25293 7.1272C5.25404 7.07725 5.24516 7.02759 5.22681 6.98112C5.20846 6.93465 5.18102 6.89232 5.14608 6.85661C5.11115 6.82089 5.06944 6.79251 5.02339 6.77314C4.97734 6.75377 4.92789 6.74379 4.87793 6.74379C4.82797 6.74379 4.77852 6.75377 4.73247 6.77314C4.68642 6.79251 4.64471 6.82089 4.60977 6.85661C4.57484 6.89232 4.5474 6.93465 4.52905 6.98112C4.5107 7.02759 4.50182 7.07725 4.50293 7.1272C4.50293 7.80238 5.02143 8.19302 5.62646 8.30713V8.62134C5.62536 8.67128 5.63424 8.72095 5.65258 8.76741C5.67093 8.81388 5.69838 8.85621 5.73331 8.89193C5.76824 8.92764 5.80996 8.95602 5.856 8.97539C5.90205 8.99477 5.95151 9.00475 6.00146 9.00475C6.05142 9.00475 6.10088 8.99477 6.14692 8.97539C6.19297 8.95602 6.23469 8.92764 6.26962 8.89193C6.30455 8.85621 6.332 8.81388 6.35034 8.76741C6.36869 8.72095 6.37757 8.67128 6.37646 8.62134V8.30713C6.98161 8.19308 7.50073 7.80247 7.50073 7.1272C7.50073 6.65845 7.28868 6.27933 7.00488 6.05859C6.72108 5.83786 6.40063 5.73926 6.11938 5.64551C5.83813 5.55176 5.59535 5.46286 5.45727 5.35547C5.3192 5.24808 5.25293 5.15771 5.25293 4.87646C5.25293 4.25147 6.75 4.25147 6.75 4.87646C6.75 4.97602 6.78955 5.07149 6.85994 5.14189C6.93034 5.21228 7.02581 5.25183 7.12537 5.25183C7.22492 5.25183 7.32039 5.21228 7.39079 5.14189C7.46118 5.07149 7.50073 4.97602 7.50073 4.87646C7.50073 4.20177 6.98143 3.81226 6.37646 3.698V3.38159C6.37705 3.33142 6.36757 3.28164 6.34858 3.2352C6.32958 3.18876 6.30146 3.1466 6.26588 3.11122C6.2303 3.07584 6.18798 3.04797 6.14143 3.02924C6.09488 3.01051 6.04504 3.00132 5.99487 3.0022Z" fill="#0C5295"/>
</g>
<defs>
<clipPath id="clip0_201_38">
<rect width="12" height="12" fill="white"/>
</clipPath>
</defs>
</svg>
