<svg width="50" height="50" viewBox="0 0 50 50" fill="none" xmlns="http://www.w3.org/2000/svg">
<g clip-path="url(#clip0_218_7691)">
<path d="M6.97866 15.8333L33.092 1.25667C33.8639 0.825857 34.7753 0.7193 35.6258 0.960436C36.4762 1.20157 37.1961 1.77065 37.627 2.5425L40.1478 7.05834C40.3358 7.38693 40.4043 7.77043 40.3417 8.14378C40.2791 8.51713 40.0893 8.85733 39.8045 9.10667C38.8549 9.91589 38.1512 10.9752 37.7734 12.1642C37.3955 13.3532 37.3587 14.6244 37.667 15.8333L37.5003 18.3333H6.66699L6.97866 15.8333Z" fill="#F7C331"/>
<path d="M42.4997 32.5C42.4998 34.0428 43.0346 35.5378 44.0131 36.7306C44.9916 37.9233 46.3533 38.7401 47.8663 39.0417C48.2365 39.1193 48.5684 39.3228 48.8054 39.6176C49.0424 39.9123 49.17 40.2801 49.1663 40.6583V45.8333C49.1663 46.7174 48.8152 47.5652 48.19 48.1904C47.5649 48.8155 46.7171 49.1667 45.833 49.1667H4.16634C3.28229 49.1667 2.43444 48.8155 1.80932 48.1904C1.1842 47.5652 0.833008 46.7174 0.833008 45.8333V19.1667C0.833008 18.2826 1.1842 17.4348 1.80932 16.8097C2.43444 16.1845 3.28229 15.8333 4.16634 15.8333H45.833C46.7171 15.8333 47.5649 16.1845 48.19 16.8097C48.8152 17.4348 49.1663 18.2826 49.1663 19.1667V24.3417C49.17 24.7199 49.0424 25.0877 48.8054 25.3824C48.5684 25.6772 48.2365 25.8807 47.8663 25.9583C46.3533 26.26 44.9916 27.0767 44.0131 28.2694C43.0346 29.4622 42.4998 30.9572 42.4997 32.5Z" fill="#0C5295"/>
<path d="M36.6667 46.6667V49.1667H35V46.6667C35 46.4457 35.0878 46.2337 35.2441 46.0774C35.4004 45.9211 35.6123 45.8333 35.8333 45.8333C36.0543 45.8333 36.2663 45.9211 36.4226 46.0774C36.5789 46.2337 36.6667 46.4457 36.6667 46.6667Z" fill="#0C5295"/>
<path d="M35.8333 40.8333C35.6123 40.8333 35.4004 40.9211 35.2441 41.0774C35.0878 41.2337 35 41.4457 35 41.6667V43.3333C35 43.5544 35.0878 43.7663 35.2441 43.9226C35.4004 44.0789 35.6123 44.1667 35.8333 44.1667C36.0543 44.1667 36.2663 44.0789 36.4226 43.9226C36.5789 43.7663 36.6667 43.5544 36.6667 43.3333V41.6667C36.6667 41.4457 36.5789 41.2337 36.4226 41.0774C36.2663 40.9211 36.0543 40.8333 35.8333 40.8333Z" fill="#0C5295"/>
<path d="M35.8333 35.8333C35.6123 35.8333 35.4004 35.9211 35.2441 36.0774C35.0878 36.2337 35 36.4457 35 36.6667V38.3333C35 38.5544 35.0878 38.7663 35.2441 38.9226C35.4004 39.0789 35.6123 39.1667 35.8333 39.1667C36.0543 39.1667 36.2663 39.0789 36.4226 38.9226C36.5789 38.7663 36.6667 38.5544 36.6667 38.3333V36.6667C36.6667 36.4457 36.5789 36.2337 36.4226 36.0774C36.2663 35.9211 36.0543 35.8333 35.8333 35.8333Z" fill="#0C5295"/>
<path d="M35.8333 30.8333C35.6123 30.8333 35.4004 30.9211 35.2441 31.0774C35.0878 31.2337 35 31.4457 35 31.6667V33.3333C35 33.5544 35.0878 33.7663 35.2441 33.9226C35.4004 34.0789 35.6123 34.1667 35.8333 34.1667C36.0543 34.1667 36.2663 34.0789 36.4226 33.9226C36.5789 33.7663 36.6667 33.5544 36.6667 33.3333V31.6667C36.6667 31.4457 36.5789 31.2337 36.4226 31.0774C36.2663 30.9211 36.0543 30.8333 35.8333 30.8333Z" fill="#0C5295"/>
<path d="M35.8333 25.8333C35.6123 25.8333 35.4004 25.9211 35.2441 26.0774C35.0878 26.2337 35 26.4457 35 26.6667V28.3333C35 28.5544 35.0878 28.7663 35.2441 28.9226C35.4004 29.0789 35.6123 29.1667 35.8333 29.1667C36.0543 29.1667 36.2663 29.0789 36.4226 28.9226C36.5789 28.7663 36.6667 28.5544 36.6667 28.3333V26.6667C36.6667 26.4457 36.5789 26.2337 36.4226 26.0774C36.2663 25.9211 36.0543 25.8333 35.8333 25.8333Z" fill="#0C5295"/>
<path d="M35.8333 20.8333C35.6123 20.8333 35.4004 20.9211 35.2441 21.0774C35.0878 21.2337 35 21.4457 35 21.6667V23.3333C35 23.5544 35.0878 23.7663 35.2441 23.9226C35.4004 24.0789 35.6123 24.1667 35.8333 24.1667C36.0543 24.1667 36.2663 24.0789 36.4226 23.9226C36.5789 23.7663 36.6667 23.5544 36.6667 23.3333V21.6667C36.6667 21.4457 36.5789 21.2337 36.4226 21.0774C36.2663 20.9211 36.0543 20.8333 35.8333 20.8333Z" fill="#0C5295"/>
<path d="M36.6667 15.8333V18.3333C36.6667 18.5544 36.5789 18.7663 36.4226 18.9226C36.2663 19.0789 36.0543 19.1667 35.8333 19.1667C35.6123 19.1667 35.4004 19.0789 35.2441 18.9226C35.0878 18.7663 35 18.5544 35 18.3333V15.8333H36.6667Z" fill="#0C5295"/>
<path d="M10.0001 43.3333C9.83536 43.3333 9.67427 43.2844 9.53727 43.1928C9.40026 43.1013 9.29347 42.9711 9.23042 42.8189C9.16736 42.6666 9.15086 42.4991 9.183 42.3375C9.21513 42.1758 9.29447 42.0274 9.41098 41.9108L27.7443 23.5775C27.9015 23.4257 28.112 23.3417 28.3305 23.3436C28.549 23.3455 28.758 23.4331 28.9125 23.5876C29.067 23.7422 29.1546 23.9512 29.1565 24.1697C29.1584 24.3882 29.0744 24.5987 28.9226 24.7558L10.5893 43.0892C10.4331 43.2455 10.2211 43.3333 10.0001 43.3333Z" fill="white"/>
<path d="M13.3337 31.6666C12.5096 31.6666 11.704 31.4223 11.0188 30.9644C10.3336 30.5066 9.79953 29.8559 9.48416 29.0945C9.1688 28.3331 9.08628 27.4954 9.24706 26.6871C9.40783 25.8789 9.80466 25.1364 10.3874 24.5537C10.9701 23.971 11.7125 23.5741 12.5208 23.4134C13.329 23.2526 14.1668 23.3351 14.9282 23.6505C15.6895 23.9658 16.3403 24.4999 16.7981 25.1851C17.256 25.8703 17.5003 26.6759 17.5003 27.5C17.499 28.6046 17.0596 29.6637 16.2785 30.4448C15.4974 31.2259 14.4383 31.6653 13.3337 31.6666ZM13.3337 25C12.8392 25 12.3559 25.1466 11.9447 25.4213C11.5336 25.696 11.2132 26.0865 11.024 26.5433C10.8347 27.0001 10.7852 27.5028 10.8817 27.9877C10.9782 28.4727 11.2163 28.9181 11.5659 29.2677C11.9155 29.6174 12.361 29.8555 12.8459 29.9519C13.3309 30.0484 13.8336 29.9989 14.2904 29.8097C14.7472 29.6205 15.1376 29.3 15.4123 28.8889C15.687 28.4778 15.8337 27.9944 15.8337 27.5C15.8337 26.8369 15.5703 26.2011 15.1014 25.7322C14.6326 25.2634 13.9967 25 13.3337 25Z" fill="white"/>
<path d="M24.9997 43.3333C24.1756 43.3333 23.37 43.089 22.6848 42.6311C21.9996 42.1733 21.4655 41.5225 21.1502 40.7612C20.8348 39.9998 20.7523 39.162 20.9131 38.3538C21.0738 37.5455 21.4707 36.8031 22.0534 36.2204C22.6361 35.6377 23.3785 35.2408 24.1868 35.0801C24.9951 34.9193 25.8328 35.0018 26.5942 35.3172C27.3556 35.6325 28.0063 36.1666 28.4641 36.8518C28.922 37.537 29.1663 38.3426 29.1663 39.1667C29.165 40.2713 28.7256 41.3304 27.9445 42.1115C27.1634 42.8926 26.1043 43.332 24.9997 43.3333ZM24.9997 36.6667C24.5052 36.6667 24.0219 36.8133 23.6108 37.088C23.1996 37.3627 22.8792 37.7531 22.69 38.21C22.5008 38.6668 22.4513 39.1694 22.5477 39.6544C22.6442 40.1393 22.8823 40.5848 23.2319 40.9344C23.5815 41.2841 24.027 41.5222 24.512 41.6186C24.9969 41.7151 25.4996 41.6656 25.9564 41.4764C26.4132 41.2871 26.8036 40.9667 27.0784 40.5556C27.3531 40.1445 27.4997 39.6611 27.4997 39.1667C27.4997 38.5036 27.2363 37.8677 26.7674 37.3989C26.2986 36.9301 25.6627 36.6667 24.9997 36.6667Z" fill="white"/>
</g>
<defs>
<clipPath id="clip0_218_7691">
<rect width="50" height="50" fill="white"/>
</clipPath>
</defs>
</svg>
