<svg width="50" height="50" viewBox="0 0 50 50" fill="none" xmlns="http://www.w3.org/2000/svg">
<path d="M30.4228 38.1348H5.85938C2.62852 38.1348 0 35.5063 0 32.2754V11.8652C0 8.63438 2.62852 6.00586 5.85938 6.00586H32.8418L30.4228 11.8652V38.1348Z" fill="#0C5295"/>
<path d="M19.043 20.6543H5.85938V11.8652H19.043V20.6543Z" fill="white"/>
<path d="M5.85938 23.4863V26.416L30.9642 30.3223V23.4863H5.85938Z" fill="black"/>
<path d="M30.9639 26.416H5.85938V32.2754H30.9639V26.416Z" fill="#0C5295"/>
<path d="M44.1393 43.9941H17.1133L19.5455 38.1222L24.8898 33.7298L23.1843 29.3374L30.4214 11.8652H44.1393C47.3701 11.8652 49.9986 14.4938 49.9986 17.7246V38.1348C49.9986 41.3656 47.3701 43.9941 44.1393 43.9941Z" fill="#0C5295"/>
<path d="M23.2057 29.3457L21.9961 32.2754L33.0683 35.2051L44.1404 32.2754V29.3457H23.2057Z" fill="white"/>
<path d="M19.5781 38.1348H44.1415V32.2754H21.9972L19.5781 38.1348Z" fill="black"/>
</svg>
