<svg width="30" height="28" viewBox="0 0 30 28" fill="none" xmlns="http://www.w3.org/2000/svg">
<path d="M7.28873 12.0692C6.74029 12.0692 6.27734 12.6733 6.27734 13.3876C6.27734 14.1024 6.74023 14.7065 7.28873 14.7065C7.83717 14.7065 8.30064 14.1024 8.30064 13.3876C8.30064 12.6733 7.83717 12.0692 7.28873 12.0692Z" fill="#0CA289"/>
<path d="M16.1579 19.0413C15.6094 19.0413 15.1465 19.6454 15.1465 20.3602C15.1465 21.0745 15.6094 21.6786 16.1579 21.6786C16.7063 21.6786 17.1698 21.0745 17.1698 20.3602C17.1698 19.6454 16.7063 19.0413 16.1579 19.0413Z" fill="#0CA289"/>
<path d="M21.9053 8.36023C12.9942 0.160738 13.45 0.473921 12.7416 0.198707C11.7347 -0.200668 10.5367 0.00815984 9.70922 0.76941L1.45963 8.36023C0.532031 9.21336 0 10.4274 0 11.6919V25.1339C0 26.7177 1.28209 28.0067 2.85768 28.0067H20.5066C22.0823 28.0067 23.3643 26.7177 23.3643 25.1339V11.6919C23.3644 10.4274 22.8323 9.21336 21.9053 8.36023ZM10.8319 5.47859C10.8852 4.96777 11.3537 4.60501 11.8779 4.70339C12.3792 4.80793 12.6616 5.28898 12.5681 5.73699C12.4688 6.21429 12.0198 6.51834 11.5345 6.42722C11.0711 6.33054 10.7882 5.90949 10.8319 5.47859ZM4.51945 13.3876C4.51945 11.6913 5.7617 10.3114 7.28871 10.3114C8.81631 10.3114 10.0585 11.6913 10.0585 13.3876C10.0585 15.0839 8.81625 16.4643 7.28871 16.4643C5.7617 16.4643 4.51945 15.0839 4.51945 13.3876ZM9.55811 22.7427C8.93701 22.7427 8.50353 22.1059 8.74834 21.5233L13.027 11.3257C13.2151 10.878 13.7301 10.6671 14.1778 10.8552C14.6254 11.0427 14.8358 11.5583 14.6483 12.0059L10.369 22.2036C10.2278 22.5399 9.90205 22.7427 9.55811 22.7427ZM16.1577 23.4364C14.6307 23.4364 13.3885 22.0565 13.3885 20.3602C13.3885 18.6639 14.6307 17.2835 16.1577 17.2835C17.6847 17.2835 18.9275 18.6639 18.9275 20.3602C18.9275 22.0565 17.6847 23.4364 16.1577 23.4364Z" fill="#0CA289"/>
<path d="M29.7791 18.0129C26.9173 9.68243 25.3279 5.05071 25.3053 4.9981C24.8079 3.84614 23.841 2.95024 22.6539 2.54067C22.5857 2.51753 22.9877 2.61515 16.6133 1.10278L23.0945 7.06645C24.383 8.25122 25.1219 9.93696 25.1219 11.6918V23.0825L28.2837 21.729C29.714 21.1102 30.3791 19.4491 29.7791 18.0129Z" fill="#0CA289"/>
</svg>
