<svg width="27" height="24" viewBox="0 0 27 24" fill="none" xmlns="http://www.w3.org/2000/svg">
<rect width="27" height="24" rx="5" fill="#D9ECFF"/>
<g clip-path="url(#clip0_319_2436)">
<path d="M20.043 12.3679V7.6533C20.043 6.50651 19.1101 5.57355 17.9633 5.57355H8.97691C7.83012 5.57355 6.89716 6.50654 6.89716 7.6533V12.4288C6.34169 13.0095 6 13.7963 6 14.6614V18.2363C6 18.8926 6.53388 19.4265 7.19013 19.4265C7.84635 19.4265 8.38022 18.8926 8.38022 18.2363V17.8671H18.6198V18.2363C18.6198 18.8926 19.1537 19.4265 19.8099 19.4265C20.4661 19.4265 21 18.8926 21 18.2363V14.6614C21 13.7657 20.6337 12.9539 20.043 12.3679ZM8.97691 6.15948H17.9633C18.787 6.15948 19.4571 6.82962 19.4571 7.6533V11.9068C19.2777 11.7964 19.0867 11.7029 18.8864 11.6288V10.6545C18.8864 9.79086 18.1838 9.08821 17.3201 9.08821H14.7734C14.2491 9.08821 13.7845 9.3474 13.5 9.7441C13.2156 9.3474 12.751 9.08821 12.2267 9.08821H9.67995C8.81628 9.08821 8.11362 9.79083 8.11362 10.6545V11.6288C7.89094 11.7112 7.67974 11.8175 7.48312 11.9445V7.6533C7.4831 6.82962 8.1532 6.15948 8.97691 6.15948ZM9.23241 11.429C9.05092 11.429 8.87291 11.4443 8.6995 11.4732V10.6545C8.6995 10.1139 9.13931 9.67414 9.67989 9.67414H12.2266C12.7672 9.67414 13.207 10.1139 13.207 10.6545V11.4291H9.23241V11.429ZM13.793 10.6545C13.793 10.1139 14.2328 9.67411 14.7734 9.67411H17.3201C17.8607 9.67411 18.3005 10.1139 18.3005 10.6545V11.4732C18.127 11.4443 17.9491 11.429 17.7676 11.429H13.793V10.6545ZM9.23241 12.015H17.7676C19.2268 12.015 20.414 13.2022 20.414 14.6614V15.5306H17.4757C17.3139 15.5306 17.1827 15.6618 17.1827 15.8236C17.1827 15.9853 17.3139 16.1165 17.4757 16.1165H20.4141V17.2812H6.58594V16.1165H14.546C14.7078 16.1165 14.839 15.9853 14.839 15.8236C14.839 15.6618 14.7078 15.5306 14.546 15.5306H6.58594V14.6614C6.58594 13.2022 7.77313 12.015 9.23241 12.015ZM7.79429 18.2363C7.79429 18.5695 7.52326 18.8405 7.19013 18.8405C6.85699 18.8405 6.58594 18.5695 6.58594 18.2363V17.8671H7.79429V18.2363ZM19.8099 18.8405C19.4767 18.8405 19.2057 18.5695 19.2057 18.2363V17.8671H20.4141V18.2363C20.4141 18.5695 20.143 18.8405 19.8099 18.8405Z" fill="#0C5295"/>
<path d="M16.0099 16.1167C16.1718 16.1167 16.303 15.9855 16.303 15.8236C16.303 15.6617 16.1718 15.5305 16.0099 15.5305C15.848 15.5305 15.7168 15.6617 15.7168 15.8236C15.7168 15.9855 15.848 16.1167 16.0099 16.1167Z" fill="#0C5295"/>
</g>
<defs>
<clipPath id="clip0_319_2436">
<rect width="15" height="15" fill="white" transform="translate(6 5)"/>
</clipPath>
</defs>
</svg>
