<svg width="30" height="20" viewBox="0 0 30 20" fill="none" xmlns="http://www.w3.org/2000/svg">
<path d="M29.8094 9.8119C29.5414 9.44528 23.1556 0.834961 14.9999 0.834961C6.84412 0.834961 0.458087 9.44528 0.190372 9.81155C-0.0634572 10.1594 -0.0634572 10.6311 0.190372 10.9789C0.458087 11.3455 6.84412 19.9559 14.9999 19.9559C23.1556 19.9559 29.5414 11.3455 29.8094 10.9792C30.0635 10.6315 30.0635 10.1594 29.8094 9.8119ZM14.9999 17.9778C8.99229 17.9778 3.78909 12.263 2.24883 10.3947C3.7871 8.52483 8.9794 2.81297 14.9999 2.81297C21.0072 2.81297 26.21 8.52682 27.7509 10.3961C26.2126 12.2659 21.0203 17.9778 14.9999 17.9778Z" fill="#0C5295"/>
<path d="M15.0005 4.4613C11.7285 4.4613 9.06641 7.1234 9.06641 10.3954C9.06641 13.6674 11.7285 16.3295 15.0005 16.3295C18.2725 16.3295 20.9346 13.6674 20.9346 10.3954C20.9346 7.1234 18.2725 4.4613 15.0005 4.4613ZM15.0005 14.3514C12.8191 14.3514 11.0445 12.5768 11.0445 10.3954C11.0445 8.21401 12.8191 6.43938 15.0005 6.43938C17.1819 6.43938 18.9565 8.21401 18.9565 10.3954C18.9565 12.5768 17.182 14.3514 15.0005 14.3514Z" fill="#0C5295"/>
</svg>
