<svg width="250" height="250" viewBox="0 0 250 250" fill="none" xmlns="http://www.w3.org/2000/svg">
<path d="M250 125C250 187.393 204.287 239.106 144.531 248.481V161.133H173.657L179.199 125H144.531V101.553C144.531 91.665 149.375 82.0312 164.902 82.0312H180.664V51.2695C180.664 51.2695 166.357 48.8281 152.681 48.8281C124.131 48.8281 105.469 66.1328 105.469 97.4609V125H73.7305V161.133H105.469V248.481C45.7129 239.106 0 187.393 0 125C0 55.9668 55.9668 0 125 0C194.033 0 250 55.9668 250 125Z" fill="#1877F2"/>
<path d="M173.657 161.133L179.199 125H144.531V101.552C144.531 91.667 149.374 82.0312 164.902 82.0312H180.664V51.2695C180.664 51.2695 166.359 48.8281 152.683 48.8281C124.13 48.8281 105.469 66.1328 105.469 97.4609V125H73.7305V161.133H105.469V248.481C111.833 249.479 118.355 250 125 250C131.645 250 138.167 249.479 144.531 248.481V161.133H173.657Z" fill="white"/>
</svg>
