<svg width="45" height="45" viewBox="0 0 45 45" fill="none" xmlns="http://www.w3.org/2000/svg">
<rect width="45" height="45" rx="8" fill="white"/>
<path fill-rule="evenodd" clip-rule="evenodd" d="M37.7824 22.9935C37.7824 14.8258 31.1612 8.20459 22.9935 8.20459C14.8258 8.20459 8.20459 14.8258 8.20459 22.9935C8.20459 31.1612 14.8258 37.7824 22.9935 37.7824C21.9989 37.7824 21.0275 37.6835 20.0879 37.4963V26.2357H17.6759V22.2149H20.0879V19.8013C20.0879 16.5211 21.4495 14.5709 25.3186 14.5709H28.5398V18.592H26.5263C25.0201 18.592 24.9205 19.1536 24.9205 20.2022L24.9151 22.2146H28.5624L28.1355 26.2351H24.9151V37.6583C24.3429 37.7325 23.7669 37.7736 23.19 37.7812C31.2671 37.676 37.7824 31.0956 37.7824 22.9935Z" fill="#132238"/>
</svg>
