<svg width="15" height="15" viewBox="0 0 15 15" fill="none" xmlns="http://www.w3.org/2000/svg">
<g clip-path="url(#clip0_353_12064)">
<path d="M7.5 0C3.36425 0 0 3.36425 0 7.5C0 11.6358 3.36425 15 7.5 15C11.6358 15 15 11.6352 15 7.5C15 3.36483 11.6358 0 7.5 0ZM7.5 13.8381C4.00562 13.8381 1.16188 10.995 1.16188 7.5C1.16188 4.00503 4.00562 1.16188 7.5 1.16188C10.9944 1.16188 13.8381 4.00503 13.8381 7.5C13.8381 10.995 10.995 13.8381 7.5 13.8381Z" fill="#0C5295"/>
<path d="M10.4041 6.86676H8.08031V4.54299C8.08031 4.22231 7.82062 3.96204 7.49936 3.96204C7.17809 3.96204 6.9184 4.22231 6.9184 4.54299V6.86676H4.59463C4.27336 6.86676 4.01367 7.12704 4.01367 7.44772C4.01367 7.7684 4.27336 8.02868 4.59463 8.02868H6.9184V10.3524C6.9184 10.6731 7.17809 10.9334 7.49936 10.9334C7.82062 10.9334 8.08031 10.6731 8.08031 10.3524V8.02868H10.4041C10.7254 8.02868 10.985 7.7684 10.985 7.44772C10.985 7.12704 10.7254 6.86676 10.4041 6.86676Z" fill="#0C5295"/>
</g>
<defs>
<clipPath id="clip0_353_12064">
<rect width="15" height="15" rx="7.5" fill="white"/>
</clipPath>
</defs>
</svg>
