<svg width="50" height="50" viewBox="0 0 50 50" fill="none" xmlns="http://www.w3.org/2000/svg">
<circle cx="25" cy="25" r="25" fill="#0C5295"/>
<path d="M35.3564 15H14.6425C14.277 14.9993 13.942 15.2028 13.775 15.5269C13.6057 15.8553 13.6354 16.2509 13.8517 16.5508L21.4404 27.2101C21.443 27.2138 21.4457 27.2173 21.4483 27.2209C21.724 27.5921 21.8732 28.0418 21.8739 28.5037V37.1942C21.8723 37.4514 21.9737 37.6988 22.1554 37.8814C22.3374 38.0638 22.5848 38.1667 22.8428 38.1667C22.9739 38.1664 23.1038 38.1405 23.225 38.0902L27.4892 36.4691C27.8711 36.3526 28.1248 35.9932 28.1248 35.5605V28.5037C28.1254 28.0418 28.2747 27.5921 28.5502 27.2209C28.5527 27.2173 28.5555 27.2138 28.558 27.2101L36.147 16.5506C36.3633 16.2509 36.393 15.8556 36.2237 15.5271C36.0569 15.2028 35.7217 14.9993 35.3564 15Z" fill="white"/>
</svg>
