<svg width="30" height="27" viewBox="0 0 30 27" fill="none" xmlns="http://www.w3.org/2000/svg">
<path d="M17.3448 26.2425V21.6247C19.8978 21.3244 21.6998 20.3483 22.751 18.6964C23.8022 17.0445 24.3278 14.4165 24.3278 10.8124L27.7067 11.2629H17.4575V0H29.5088V8.78505C29.5088 13.5905 28.5326 17.5326 26.5804 20.6111C24.7033 23.6896 21.6247 25.5668 17.3448 26.2425ZM0 26.2425V21.6247C2.55292 21.3244 4.35498 20.3483 5.40618 18.6964C6.45739 17.0445 6.98299 14.4165 6.98299 10.8124L10.3619 11.2629H0.112628V0H12.1639V8.78505C12.1639 13.5905 11.1878 17.5326 9.23557 20.6111C7.35842 23.6896 4.2799 25.5668 0 26.2425Z" fill="black" fill-opacity="0.12"/>
</svg>
