<svg width="22" height="22" viewBox="0 0 22 22" fill="none" xmlns="http://www.w3.org/2000/svg">
<g clip-path="url(#clip0_499_987)">
<path d="M4.36116 16.5346L1.09129 13.9627C0.912669 13.8283 0.854189 13.5911 0.961396 13.4359C1.48548 12.6769 2.49508 12.4176 3.48705 12.7874L6.44433 14.4649L4.36116 16.5346Z" fill="#FF2C5C"/>
<path d="M5.4585 17.6319L8.03717 20.9086C8.17154 21.0872 8.40872 21.1457 8.56397 21.0384L8.75892 20.9038C9.40091 20.4606 9.62014 19.6066 9.30741 18.7676L7.53491 15.5555L5.4585 17.6319Z" fill="#FF2C5C"/>
<path d="M4.55221 13.3914L2.70215 15.2295L4.36143 16.5346L6.44463 14.4649L4.55221 13.3914Z" fill="#E62753"/>
<path d="M5.24714 6.46163C4.83649 6.05098 4.80401 5.39665 5.17088 4.94647C5.69561 4.30254 6.35303 3.58552 6.7474 3.19116C7.28691 2.65164 7.33405 2.7161 7.91047 2.36276C7.99533 2.31073 8.10486 2.32328 8.17524 2.39366L9.31516 3.53357C9.38554 3.60396 9.39805 3.71348 9.34606 3.79835C8.99272 4.37477 9.05718 4.42187 8.51766 4.96138C8.1233 5.35575 7.40628 6.01317 6.76235 6.5379C6.31212 6.90472 5.65775 6.87228 5.24714 6.46163Z" fill="#C3D3DB"/>
<path d="M15.5382 16.7528C15.1275 16.3421 15.095 15.6878 15.4619 15.2376C15.9866 14.5937 16.644 13.8767 17.0384 13.4823C17.5779 12.9428 17.625 13.0073 18.2015 12.6539C18.2864 12.6019 18.3959 12.6144 18.4663 12.6848L19.6062 13.8247C19.6766 13.8951 19.6891 14.0047 19.6371 14.0895C19.2837 14.6659 19.3482 14.713 18.8087 15.2526C18.4143 15.647 17.6973 16.3044 17.0534 16.8291C16.6031 17.1959 15.9488 17.1635 15.5382 16.7528Z" fill="#C3D3DB"/>
<path d="M10.3951 10.3487L14.4293 6.31446L1.93218 2.38799C1.67484 2.32229 1.41901 2.38485 1.24876 2.55509L0.192938 3.61092C-0.160651 3.96451 -0.00888553 4.61269 0.490281 4.88073L10.3951 10.3487Z" fill="#FF2C5C"/>
<path d="M11.6054 5.42728L8.00391 9.02875L10.3949 10.3487L14.4291 6.31446L11.6054 5.42728Z" fill="#E62753"/>
<path d="M11.6514 11.6049L15.6856 7.57073L19.612 20.0678C19.6777 20.3252 19.6152 20.581 19.4449 20.7512L18.3891 21.8071C18.0355 22.1607 17.3873 22.0089 17.1193 21.5097L11.6514 11.6049Z" fill="#FF2C5C"/>
<path d="M19.2657 5.8748L12.4883 12.6521C11.3511 13.7893 10.1421 14.8501 8.87633 15.8211L5.65179 18.2947C4.90529 18.8674 4.01748 18.9366 3.54031 18.4595C3.06314 17.9823 3.13241 17.0945 3.70509 16.348L6.17871 13.1234C7.14972 11.8577 8.2104 10.6487 9.34765 9.51146L16.125 2.73414C17.0515 1.80765 18.1156 1.03572 19.2397 0.50574C20.2077 0.0493698 21.2367 -0.236544 21.7365 0.263268C22.2363 0.763079 21.9504 1.79205 21.494 2.76009C20.9641 3.88428 20.1922 4.94831 19.2657 5.8748Z" fill="#E0F3FC"/>
<path d="M21.7366 0.263314C21.5607 0.0873998 21.3191 0.00911089 21.0378 0.00107574C21.058 0.521598 20.8323 1.18177 20.5334 1.81581C20.0034 2.93992 19.2315 4.00399 18.305 4.93048L11.5276 11.7078C10.3904 12.845 9.18142 13.9057 7.91565 14.8767L4.69111 17.3503C4.2163 17.7146 3.68444 17.8748 3.2373 17.8207C3.27091 18.0688 3.37107 18.29 3.54045 18.4594C4.01762 18.9366 4.90543 18.8673 5.65193 18.2946L8.87647 15.821C10.1422 14.85 11.3512 13.7893 12.4885 12.6521L19.2658 5.87481C20.1923 4.94832 20.9642 3.88424 21.4942 2.76014C21.9505 1.7921 22.2365 0.763125 21.7366 0.263314Z" fill="#C3D3DB"/>
<path d="M19.8275 4.5769L19.5961 4.80833C19.3811 5.02326 16.9769 2.61899 17.1918 2.40406L17.4232 2.17263C17.5691 2.02675 17.7832 1.98077 17.9576 2.0579C18.8264 2.44221 19.5579 3.1738 19.9423 4.04258C20.0193 4.21691 19.9734 4.43102 19.8275 4.5769Z" fill="#51C4F5"/>
<path d="M4.27294 18.0495C4.19048 18.0495 4.10798 18.018 4.04508 17.9551C3.91922 17.8292 3.91922 17.6252 4.04508 17.4994L6.85935 14.6851C6.98521 14.5592 7.18926 14.5592 7.31508 14.6851C7.44093 14.811 7.44093 15.015 7.31508 15.1408L4.5008 17.9551C4.43789 18.018 4.35544 18.0495 4.27294 18.0495Z" fill="#E62753"/>
</g>
<defs>
<clipPath id="clip0_499_987">
<rect width="22" height="22" fill="white"/>
</clipPath>
</defs>
</svg>
