<svg width="30" height="30" viewBox="0 0 30 30" fill="none" xmlns="http://www.w3.org/2000/svg">
<rect width="30" height="30" rx="15" fill="white"/>
<g clip-path="url(#clip0_141_2542)">
<path d="M9.56822 19.5283L6.89287 17.424C6.74673 17.3141 6.69888 17.12 6.7866 16.993C7.2154 16.372 8.04143 16.1599 8.85304 16.4624L11.2726 17.835L9.56822 19.5283Z" fill="#FF2C5C"/>
<path d="M10.4658 20.4262L12.5756 23.107C12.6856 23.2532 12.8796 23.301 13.0067 23.2133L13.1662 23.1032C13.6914 22.7405 13.8708 22.0418 13.6149 21.3553L12.1647 18.7272L10.4658 20.4262Z" fill="#FF2C5C"/>
<path d="M9.72462 16.9566L8.21094 18.4605L9.56853 19.5283L11.273 17.8349L9.72462 16.9566Z" fill="#E62753"/>
<path d="M10.2934 11.2868C9.9574 10.9508 9.93082 10.4154 10.231 10.0471C10.6603 9.52026 11.1982 8.93361 11.5209 8.61095C11.9623 8.16953 12.0009 8.22226 12.4725 7.93317C12.5419 7.8906 12.6315 7.90087 12.6891 7.95845L13.6218 8.89111C13.6793 8.9487 13.6896 9.03831 13.647 9.10774C13.3579 9.57936 13.4107 9.61789 12.9693 10.0593C12.6466 10.382 12.0599 10.9199 11.5331 11.3492C11.1647 11.6493 10.6293 11.6228 10.2934 11.2868Z" fill="#C3D3DB"/>
<path d="M18.7133 19.7068C18.3773 19.3708 18.3507 18.8355 18.6509 18.4672C19.0802 17.9403 19.6181 17.3537 19.9408 17.031C20.3822 16.5896 20.4207 16.6423 20.8924 16.3532C20.9618 16.3106 21.0514 16.3209 21.109 16.3785L22.0417 17.3112C22.0993 17.3687 22.1095 17.4584 22.067 17.5278C21.7779 17.9994 21.8306 18.0379 21.3892 18.4794C21.0665 18.8021 20.4799 19.3399 19.953 19.7693C19.5847 20.0694 19.0493 20.0428 18.7133 19.7068Z" fill="#C3D3DB"/>
<path d="M14.5051 14.4671L17.8058 11.1664L7.58088 7.9538C7.37033 7.90005 7.16101 7.95124 7.02172 8.09053L6.15786 8.95438C5.86856 9.24368 5.99273 9.77402 6.40114 9.99332L14.5051 14.4671Z" fill="#FF2C5C"/>
<path d="M15.4955 10.4405L12.5488 13.3872L14.5051 14.4671L17.8058 11.1664L15.4955 10.4405Z" fill="#E62753"/>
<path d="M15.5327 15.495L18.8334 12.1942L22.046 22.4191C22.0997 22.6297 22.0486 22.839 21.9093 22.9783L21.0454 23.8422C20.7561 24.1315 20.2258 24.0073 20.0065 23.5989L15.5327 15.495Z" fill="#FF2C5C"/>
<path d="M21.7631 10.8067L16.218 16.3517C15.2875 17.2822 14.2983 18.15 13.2627 18.9445L10.6245 20.9684C10.0137 21.4369 9.28729 21.4936 8.89688 21.1032C8.50647 20.7128 8.56314 19.9864 9.03171 19.3756L11.0556 16.7374C11.85 15.7017 12.7179 14.7126 13.6483 13.7821L19.1935 8.23702C19.9515 7.47898 20.8221 6.8474 21.7418 6.41379C22.5339 6.04039 23.3757 5.80646 23.7847 6.2154C24.1936 6.62434 23.9597 7.46622 23.5863 8.25826C23.1527 9.17805 22.5211 10.0486 21.7631 10.8067Z" fill="#E0F3FC"/>
<path d="M23.7848 6.21544C23.6408 6.07151 23.4431 6.00746 23.2129 6.00089C23.2295 6.42677 23.0448 6.96691 22.8002 7.48567C22.3667 8.40539 21.7351 9.276 20.977 10.034L15.4319 15.5791C14.5015 16.5096 13.5123 17.3774 12.4767 18.1719L9.8384 20.1957C9.44992 20.4937 9.01476 20.6248 8.64893 20.5805C8.67642 20.7836 8.75837 20.9646 8.89695 21.1032C9.28736 21.4936 10.0138 21.4369 10.6245 20.9683L13.2628 18.9445C14.2984 18.15 15.2876 17.2822 16.2181 16.3517L21.7632 10.8067C22.5212 10.0486 23.1528 9.17802 23.5864 8.2583C23.9598 7.46626 24.1937 6.62438 23.7848 6.21544Z" fill="#C3D3DB"/>
<path d="M22.2223 9.74473L22.0329 9.93408C21.8571 10.1099 19.8899 8.14281 20.0658 7.96696L20.2551 7.7776C20.3745 7.65825 20.5497 7.62063 20.6924 7.68374C21.4032 7.99817 22.0017 8.59674 22.3162 9.30757C22.3792 9.45019 22.3416 9.62538 22.2223 9.74473Z" fill="#51C4F5"/>
<path d="M9.49608 20.7678C9.42862 20.7678 9.36112 20.7421 9.30965 20.6906C9.20668 20.5876 9.20668 20.4206 9.30965 20.3177L11.6122 18.0151C11.7152 17.9121 11.8822 17.9121 11.9851 18.0151C12.0881 18.1181 12.0881 18.285 11.9851 18.388L9.68252 20.6906C9.63105 20.742 9.56358 20.7678 9.49608 20.7678Z" fill="#E62753"/>
</g>
<defs>
<clipPath id="clip0_141_2542">
<rect width="18" height="18" fill="white" transform="translate(6 6)"/>
</clipPath>
</defs>
</svg>
