<svg width="18" height="9" viewBox="0 0 18 9" fill="none" xmlns="http://www.w3.org/2000/svg">
<path d="M10.0299 1.81779C9.14683 0.996611 8.27221 0.22605 8.04161 0.175429C7.5354 0.0601262 6.72266 -0.131108 6.72266 0.133245C6.72266 0.293544 7.27667 1.49157 7.70976 2.40274C8.45501 2.22838 9.2537 2.02309 10.0299 1.81779Z" fill="#0C5295"/>
<path d="M4.54879 2.91462C4.45317 2.4534 4.35755 2.07937 4.29287 2.0175C4.10726 1.83471 3.63199 1.47192 3.37326 1.47192C3.28889 1.47192 3.19046 1.72222 3.09766 2.06531C3.46606 2.47309 3.90478 2.84431 4.54879 2.91462Z" fill="#0C5295"/>
<path d="M9.85823 6.72521C9.85823 7.04862 9.45326 7.31016 8.94987 7.31016C8.44928 7.31016 8.0415 7.04862 8.0415 6.72521C8.0415 6.4018 8.44928 6.14026 8.94987 6.14026C9.45045 6.14307 9.85823 6.4018 9.85823 6.72521Z" fill="#0C5295"/>
<path d="M9.597 1.41002C9.597 1.73344 9.18922 1.99498 8.68864 1.99498C8.18805 1.99498 7.78027 1.73344 7.78027 1.41002C7.78027 1.08661 8.18805 0.825073 8.68864 0.825073C9.19203 0.825073 9.597 1.08661 9.597 1.41002Z" fill="#0C5295"/>
<path d="M17.5416 1.51405C17.3307 1.7081 16.8667 1.97808 15.9161 1.97808C15.7783 1.97808 15.663 1.86559 15.663 1.72497C15.663 1.58717 15.7755 1.47187 15.9161 1.47187L16.8779 1.15127C16.3155 0.934727 15.6011 0.833486 14.8868 0.954413C13.3316 1.21314 6.58782 3.28859 4.7711 3.28859C2.95438 3.28859 2.45942 1.38469 1.65792 1.21314C0.729874 1.01628 0.102739 1.21314 0.102739 1.21314C-0.369722 1.6856 0.8733 4.08165 2.07695 4.90565C1.48356 5.43998 0.364279 6.46927 0.364279 6.6605C0.364279 6.91923 1.14328 6.91923 1.40201 6.91923C1.60168 6.91923 3.48871 5.99962 4.34926 5.57215C4.76266 5.61996 5.03264 5.61996 5.03264 5.61996C5.8707 5.61996 6.66657 5.59184 7.42025 5.54403C6.55126 6.43552 4.77391 8.28037 4.77391 8.48566C4.77391 8.75564 5.55291 8.73314 6.07037 8.73314C6.45284 8.73314 9.66726 6.32865 11.3181 5.07157C14.0206 4.58224 15.5618 3.94385 15.5618 3.94385C15.5618 3.94385 18 3.02987 18 2.25087C18 1.99214 17.8285 1.73341 17.5416 1.51405ZM10.9778 3.30828C11.1212 3.29984 11.2421 3.40952 11.2506 3.55295C11.259 3.69637 11.1493 3.8173 11.0059 3.82574C10.8625 3.83417 10.7387 3.72449 10.7303 3.58388C10.7275 3.44046 10.8343 3.31672 10.9778 3.30828ZM9.82193 3.59794C9.96535 3.58951 10.0891 3.69918 10.0975 3.84261C10.106 3.98604 9.99629 4.10696 9.85286 4.1154C9.70944 4.12384 9.58851 4.01416 9.58008 3.87073C9.56883 3.73012 9.6785 3.60638 9.82193 3.59794ZM8.65484 3.85105C8.79827 3.84261 8.922 3.95229 8.92763 4.09571C8.93607 4.23914 8.82639 4.36288 8.68296 4.37132C8.53954 4.37975 8.4158 4.27007 8.41017 4.12665C8.40455 3.98322 8.51141 3.85948 8.65484 3.85105ZM5.15919 4.97314C5.01577 4.98158 4.89484 4.8719 4.88359 4.72847C4.87515 4.58505 4.98483 4.46131 5.12826 4.45287C5.27168 4.44444 5.39542 4.55411 5.40386 4.69754C5.40948 4.84096 5.30262 4.9647 5.15919 4.97314ZM6.34034 4.80159C6.19692 4.81003 6.07318 4.70035 6.06755 4.55693C6.05912 4.4135 6.1688 4.28976 6.30941 4.28132C6.45284 4.27289 6.57658 4.38257 6.58501 4.52599C6.59064 4.66942 6.48096 4.79316 6.34034 4.80159ZM7.24027 4.35444C7.23183 4.21102 7.34151 4.08728 7.48494 4.07884C7.62836 4.0704 7.7521 4.18008 7.75773 4.3207C7.76616 4.46412 7.65649 4.58786 7.51306 4.5963C7.37245 4.60755 7.24871 4.49787 7.24027 4.35444ZM12.1561 3.4967C12.0127 3.50514 11.8889 3.39546 11.8833 3.25203C11.8749 3.10861 11.9846 2.98487 12.128 2.97924C12.2714 2.97081 12.3952 3.08049 12.4036 3.22391C12.4064 3.36453 12.2995 3.48826 12.1561 3.4967ZM13.4385 2.96237C13.2951 2.97081 13.1713 2.86113 13.1629 2.7177C13.1545 2.57428 13.2641 2.45054 13.4076 2.44491C13.551 2.43648 13.6747 2.54616 13.6804 2.68677C13.6916 2.83301 13.5819 2.95393 13.4385 2.96237ZM14.5409 2.5096C14.3975 2.51803 14.2737 2.40835 14.2653 2.26774C14.2569 2.12432 14.3666 2.00058 14.51 1.99214C14.6534 1.9837 14.7771 2.09338 14.7856 2.23681C14.794 2.38023 14.6843 2.50116 14.5409 2.5096Z" fill="#0C5295"/>
</svg>
