<svg width="35" height="35" viewBox="0 0 35 35" fill="none" xmlns="http://www.w3.org/2000/svg">
<g id="gift-card 1">
<g id="Group">
<g id="Group_2">
<g id="Group_3">
<g id="Group_4">
<g id="Group_5">
<path id="Vector" d="M33.3713 18.316L25.4615 31.2539C25.0423 31.9397 24.1464 32.1557 23.4607 31.7365L2.11248 18.685C1.42669 18.2658 1.21063 17.37 1.6299 16.6842L9.53962 3.74627C9.95889 3.06048 10.8547 2.84442 11.5405 3.26369L32.8887 16.3151C33.5745 16.7344 33.7905 17.6302 33.3713 18.316Z" fill="#1F6FBC"/>
</g>
<g id="Group_6">
<path id="Vector_2" d="M5.88113 20.9916L2.11252 18.6877C1.4233 18.2663 1.2124 17.3698 1.62994 16.6868L9.54021 3.748C9.96155 3.05881 10.8519 2.84405 11.5411 3.26542L15.3097 5.5694C14.6268 5.15188 13.7302 5.3628 13.3088 6.05198L5.39855 18.9908C4.98101 19.6737 5.1982 20.5741 5.88113 20.9916Z" fill="#0C5295"/>
</g>
</g>
<g id="Group_7">
<g id="Group_8">
<g id="Group_9">
<path id="Vector_3" d="M31.4676 9.91792V25.0821C31.4676 25.8859 30.816 26.5375 30.0122 26.5375H4.99055C4.18676 26.5375 3.53516 25.8859 3.53516 25.0821V9.91792C3.53516 9.11413 4.18676 8.46252 4.99055 8.46252H30.0122C30.816 8.46252 31.4676 9.11413 31.4676 9.91792Z" fill="#1F6FBC"/>
</g>
<g id="Group_10">
<path id="Vector_4" d="M9.41156 26.5409H4.99446C4.18663 26.5409 3.53906 25.886 3.53906 25.0855V9.92024C3.53906 9.11246 4.18663 8.46484 4.99446 8.46484H9.41156C8.61111 8.46484 7.95616 9.11246 7.95616 9.92024V25.0855C7.95616 25.886 8.61111 26.5409 9.41156 26.5409Z" fill="#0C5295"/>
</g>
</g>
<g id="Group_11">
<path id="Vector_5" d="M3.53906 13.4056H31.468V16.2798H3.53906V13.4056Z" fill="white"/>
</g>
<g id="Group_12">
<path id="Vector_6" d="M3.53906 13.4056H10.816V16.2798H3.53906V13.4056Z" fill="white"/>
</g>
<g id="Group_13">
<path id="Vector_7" d="M12.0488 8.4624H14.9229V26.5378H12.0488V8.4624Z" fill="white"/>
</g>
<g id="Group_14">
<path id="Vector_8" d="M12.0488 8.46289H13.4859V26.5383H12.0488V8.46289Z" fill="white"/>
</g>
<g id="Group_15">
<g id="Group_16">
<g id="Group_17">
<g id="Group_18">
<g id="Group_19">
<path id="Vector_9" d="M16.0103 12.76L20.8832 17.633L18.4812 18.1279L17.9862 20.5299L13.1133 15.657L16.0103 12.76Z" fill="white"/>
</g>
<g id="Group_20">
<path id="Vector_10" d="M13.1133 15.6555L14.3004 14.4684L18.3917 18.5598L17.9871 20.5293L13.1133 15.6555Z" fill="white"/>
</g>
</g>
</g>
<g id="Group_21">
<g id="Group_22">
<g id="Group_23">
<path id="Vector_11" d="M13.8598 15.657L8.98681 20.5299L8.49191 18.1279L6.08984 17.633L10.9628 12.76L13.8598 15.657Z" fill="white"/>
</g>
<g id="Group_24">
<path id="Vector_12" d="M10.9637 12.7603L12.1508 13.9473L8.05941 18.0387L6.08984 17.6341L10.9637 12.7603Z" fill="white"/>
</g>
</g>
</g>
</g>
<g id="Group_25">
<g id="Group_26">
<g id="Group_27">
<path id="Vector_13" d="M20.6736 12.7381L20.3186 13.595C19.53 15.499 17.3472 16.4031 15.4432 15.6145L14.5863 15.2595C13.9728 15.0054 13.6815 14.3021 13.9356 13.6886L14.2905 12.8317C15.0792 10.9277 17.262 10.0236 19.166 10.8122L20.0229 11.1672C20.6364 11.4213 20.9277 12.1246 20.6736 12.7381Z" fill="white"/>
</g>
<g id="Group_28">
<path id="Vector_14" d="M15.8608 13.484L15.5066 14.3393C15.2903 14.8614 15.4696 15.4497 15.91 15.7688C15.7509 15.7289 15.5963 15.6779 15.4408 15.6135L14.5855 15.2592C13.9746 15.0061 13.6817 14.2992 13.9348 13.6883L14.2891 12.833C15.0782 10.928 17.2617 10.0234 19.1668 10.8126L20.0221 11.1668C20.111 11.2037 20.1952 11.2516 20.2693 11.3083C18.4912 10.8256 16.5855 11.7345 15.8608 13.484Z" fill="white"/>
</g>
</g>
<g id="Group_29">
<g id="Group_30">
<path id="Vector_15" d="M6.29887 12.7381L6.65379 13.595C7.44246 15.499 9.62529 16.4031 11.5293 15.6145L12.3862 15.2595C12.9996 15.0054 13.291 14.3021 13.0369 13.6886L12.6819 12.8317C11.8933 10.9277 9.71043 10.0236 7.80643 10.8122L6.94956 11.1672C6.33608 11.4213 6.04476 12.1246 6.29887 12.7381Z" fill="white"/>
</g>
<g id="Group_31">
<path id="Vector_16" d="M12.6326 15.1185C12.5585 15.1752 12.4742 15.2231 12.3854 15.2599L11.53 15.6142C9.62504 16.4033 7.44147 15.4988 6.65238 13.5938L6.29809 12.7385C6.04503 12.1275 6.33779 11.4206 6.94878 11.1676L7.80412 10.8133C7.95958 10.7489 8.11416 10.6979 8.27332 10.658C7.83288 10.9771 7.6536 11.5653 7.86985 12.0874L8.22414 12.9428C8.9488 14.6923 10.8544 15.6012 12.6326 15.1185Z" fill="white"/>
</g>
</g>
<g id="Group_32">
<g id="Group_33">
<path id="Vector_17" d="M15.2471 14.6398C15.2471 15.6188 14.4603 16.4057 13.4905 16.4057C12.5114 16.4057 11.7246 15.6188 11.7246 14.6398C11.7246 13.67 12.5114 12.8832 13.4905 12.8832C14.4603 12.8832 15.2471 13.67 15.2471 14.6398Z" fill="white"/>
</g>
<g id="Group_34">
<path id="Vector_18" d="M14.1554 16.2765C13.9504 16.3576 13.7264 16.4052 13.4928 16.4052C12.511 16.4052 11.7246 15.6188 11.7246 14.6418C11.7246 13.6695 12.511 12.8831 13.4928 12.8831C13.7264 12.8831 13.9504 12.9307 14.1554 13.0117C13.5071 13.2691 13.0496 13.903 13.0496 14.6418C13.0496 15.3853 13.5071 16.0192 14.1554 16.2765Z" fill="white"/>
</g>
</g>
</g>
</g>
</g>
</g>
<g id="Group_35">
<path id="Vector_19" d="M33.0895 15.9857L31.8523 15.2293V9.91836C31.8523 8.90441 31.0288 8.07573 30.0097 8.07573H20.151L11.7415 2.93458C10.8749 2.40479 9.73921 2.67873 9.20968 3.54479L6.4398 8.07573H4.98981C3.97586 8.07573 3.14718 8.90441 3.14718 9.91836V13.4618L1.30035 16.4828C0.77056 17.3485 1.0401 18.4823 1.91081 19.0141L3.14718 19.77V25.0816C3.14718 26.0956 3.97586 26.9243 4.98981 26.9243H14.8492L23.259 32.0657C23.5518 32.2447 23.8811 32.3367 24.2158 32.3367C24.3608 32.3367 24.5069 32.3196 24.6511 32.2849C25.1294 32.1693 25.534 31.8747 25.7904 31.4555L28.5605 26.9243H30.0097C31.0288 26.9243 31.8523 26.0956 31.8523 25.0816V21.54L33.7002 18.5175C34.2297 17.6515 33.9558 16.5155 33.0895 15.9857ZM31.0803 9.91836V13.0196H20.9739L21.0293 12.8859C21.3643 12.0766 20.9788 11.1457 20.1698 10.81L19.3131 10.4551C18.2967 10.0349 17.1778 10.0344 16.1615 10.4556C15.8542 10.5828 15.5706 10.7477 15.3085 10.9387V8.8478H30.0097C30.6016 8.84779 31.0803 9.32646 31.0803 9.91836ZM12.4344 26.1516V17.6269L13.2818 16.7794C13.54 16.7979 13.5373 16.7877 13.6888 16.7793L14.5364 17.6269V26.1516H12.4344ZM20.3161 12.5903L19.9612 13.4468C19.6192 14.2727 18.9763 14.9156 18.1507 15.2574C17.3248 15.6002 16.4156 15.6002 15.5902 15.2574L15.5451 15.2387C15.5455 15.2375 15.5461 15.2365 15.5464 15.2353C15.6483 14.8927 15.651 14.5379 15.6082 14.3345L18.0582 13.3206C18.2538 13.2382 18.3465 13.0117 18.2641 12.8162C18.1817 12.6154 17.9553 12.5279 17.7596 12.6051L15.3663 13.5985C15.2024 13.3067 14.972 13.0612 14.7011 12.8711C15.2589 11.6513 16.467 10.914 17.7415 10.914C18.1675 10.914 18.6003 10.996 19.0175 11.1689L19.8742 11.5232C20.2899 11.6956 20.4882 12.1747 20.3161 12.5903ZM13.4928 16.0176C12.731 16.0176 12.1133 15.4051 12.1082 14.6434V14.6382C12.1082 13.883 12.7318 13.2691 13.4928 13.2691C14.2491 13.2691 14.8619 13.8927 14.8619 14.6382V14.6434C14.8567 15.4051 14.2442 16.0176 13.4928 16.0176ZM12.4344 11.6687V8.84867H14.5364V11.6687C14.3183 11.9389 14.1362 12.2398 13.9899 12.5635C13.831 12.5176 13.6618 12.497 13.4928 12.497C13.3178 12.497 13.1427 12.5177 12.9832 12.564C12.9826 12.5641 12.982 12.5644 12.9814 12.5646C12.835 12.2404 12.6528 11.9391 12.4344 11.6687ZM12.2737 12.8723C12.2735 12.8725 12.2732 12.8726 12.2729 12.8728C12.0001 13.0632 11.7737 13.3103 11.6089 13.5985L9.21043 12.6051C9.01478 12.5279 8.78834 12.6154 8.70603 12.8161C8.6236 13.0117 8.71628 13.2382 8.91702 13.3206L11.3619 14.3345C11.3413 14.4323 11.3361 14.5353 11.3361 14.6382C11.3361 14.849 11.367 15.0494 11.4234 15.2397L11.3808 15.2574C9.67714 15.9631 7.71533 15.1513 7.00961 13.4468L6.65475 12.5903C6.4826 12.1747 6.68089 11.6956 7.09657 11.5237L7.95333 11.1689C9.61965 10.478 11.5305 11.2424 12.2737 12.8723ZM6.34707 13.8497C6.6447 14.5142 7.10336 15.0759 7.68102 15.4944L7.22324 15.9522H3.92314V13.8497L6.34707 13.8497ZM8.36964 15.8973C8.42166 15.9214 8.47162 15.9486 8.52483 15.9706C9.50876 16.3784 10.6257 16.4055 11.6764 15.9711L11.7742 15.9306C11.9542 16.1722 12.1855 16.3728 12.4476 16.5219L9.21898 19.7505L8.86864 18.0501C8.83773 17.8993 8.71961 17.7811 8.56856 17.75L6.86787 17.3991L8.36964 15.8973ZM14.5229 16.5215C14.7851 16.3774 15.0165 16.177 15.2016 15.9353C15.2021 15.9346 15.2024 15.9338 15.2029 15.9331L15.2947 15.9711C15.8028 16.1812 16.3366 16.2868 16.8704 16.2868C17.4043 16.2868 17.9381 16.1812 18.4462 15.9706C18.4994 15.9486 18.5493 15.9214 18.6012 15.8974L20.1029 17.3991L18.4025 17.75C18.2515 17.7811 18.1333 17.8993 18.1024 18.05L17.7518 19.7505L14.5229 16.5215ZM19.2899 15.4945C19.8846 15.0637 20.3545 14.4819 20.6512 13.7917H31.0802V15.8942H19.6897L19.2899 15.4945ZM9.86839 3.94791C10.07 3.61817 10.4223 3.43622 10.7827 3.43622C10.9727 3.43622 11.1652 3.48698 11.3389 3.59304L18.6712 8.07573H7.34494L9.86839 3.94791ZM4.98981 8.84779H11.6623V10.9387C11.4002 10.7477 11.1166 10.5828 10.8093 10.4556C9.793 10.0344 8.67412 10.0349 7.65777 10.4551L6.80102 10.8105C5.99201 11.1457 5.60649 12.0766 5.9415 12.8859L6.02092 13.0776H3.91924V9.91836C3.91924 9.32646 4.39788 8.84779 4.98981 8.84779ZM2.31343 18.3556C1.80903 18.0468 1.6503 17.3891 1.95906 16.8859L3.14718 14.9424V18.8654L2.31343 18.3556ZM3.91924 25.0816V16.7243H6.45118L5.81559 17.3599C5.59877 17.5767 5.71008 17.9489 6.01062 18.0108L8.16393 18.4547L8.60752 20.608C8.66978 20.9106 9.04261 21.0188 9.25844 20.803L11.6623 18.399V26.1522H4.98981C4.39788 26.1522 3.91924 25.6735 3.91924 25.0816ZM25.1319 31.0524C24.9829 31.2962 24.7479 31.4671 24.4702 31.5344C24.193 31.6008 23.9054 31.5566 23.6617 31.4073L16.3289 26.9243H27.6557L25.1319 31.0524ZM30.0097 26.1522H15.3085V18.399L17.7124 20.803C17.9282 21.0189 18.301 20.9105 18.3633 20.608L18.8071 18.4547L20.9602 18.0108C21.2605 17.9489 21.3722 17.5769 21.1552 17.3599L20.4616 16.6663H31.0803V25.0816C31.0803 25.6735 30.6016 26.1522 30.0097 26.1522ZM33.0417 18.1144L31.8523 20.0599V16.1341L32.6866 16.6442C33.1898 16.9523 33.3491 17.6117 33.0417 18.1144Z" fill="black"/>
<path id="Vector_20" d="M28.3194 20.9352H22.7298C22.5167 20.9352 22.3438 21.1081 22.3438 21.3212C22.3438 21.5343 22.5167 21.7072 22.7298 21.7072H28.3194C28.5325 21.7072 28.7054 21.5343 28.7054 21.3212C28.7054 21.1081 28.5325 20.9352 28.3194 20.9352Z" fill="black"/>
<path id="Vector_21" d="M28.3194 23.0181H22.7298C22.5167 23.0181 22.3438 23.191 22.3438 23.4041C22.3438 23.6172 22.5167 23.7901 22.7298 23.7901H28.3194C28.5325 23.7901 28.7054 23.6172 28.7054 23.4041C28.7054 23.191 28.5325 23.0181 28.3194 23.0181Z" fill="black"/>
<path id="Vector_22" d="M1.41533 2.84308H2.07052V3.49852C2.07052 3.71164 2.24343 3.88455 2.45655 3.88455C2.66967 3.88455 2.84258 3.71164 2.84258 3.49852V2.84308H3.49803C3.71115 2.84308 3.88406 2.67017 3.88406 2.45705C3.88406 2.24393 3.71115 2.07102 3.49803 2.07102H2.84258V1.41557C2.84258 1.20245 2.66967 1.02954 2.45655 1.02954C2.24343 1.02954 2.07052 1.20245 2.07052 1.41557V2.07102H1.41533C1.20221 2.07102 1.0293 2.24393 1.0293 2.45705C1.0293 2.67017 1.20221 2.84308 1.41533 2.84308Z" fill="black"/>
<path id="Vector_23" d="M30.5234 31.8958H29.8682V31.2409C29.8682 31.0278 29.6953 30.8549 29.4822 30.8549C29.2691 30.8549 29.0962 31.0278 29.0962 31.2409V31.8958H28.4407C28.2276 31.8958 28.0547 32.0687 28.0547 32.2819C28.0547 32.495 28.2276 32.6679 28.4407 32.6679H29.0962V33.3233C29.0962 33.5365 29.2691 33.7094 29.4822 33.7094C29.6953 33.7094 29.8682 33.5365 29.8682 33.3233V32.6679H30.5234C30.7365 32.6679 30.9094 32.495 30.9094 32.2819C30.9094 32.0687 30.7365 31.8958 30.5234 31.8958Z" fill="black"/>
<path id="Vector_24" d="M2.75528 31.1396C1.97807 31.1396 1.33984 31.7779 1.33984 32.5551C1.33984 33.3374 1.97807 33.9705 2.75528 33.9705C3.53765 33.9705 4.17073 33.3374 4.17073 32.5551C4.17073 31.7779 3.53765 31.1396 2.75528 31.1396ZM2.75528 33.1985C2.40017 33.1985 2.1119 32.9102 2.1119 32.5551C2.1119 32.1999 2.40017 31.9117 2.75528 31.9117C3.1104 31.9117 3.39867 32.1999 3.39867 32.5551C3.39867 32.9102 3.1104 33.1985 2.75528 33.1985Z" fill="black"/>
<path id="Vector_25" d="M25.7162 5.66169C26.4986 5.66169 27.1317 5.02858 27.1317 4.25137C27.1317 3.46904 26.4986 2.83081 25.7162 2.83081C24.9339 2.83081 24.3008 3.46904 24.3008 4.25137C24.3008 5.02858 24.9339 5.66169 25.7162 5.66169ZM25.7162 3.60287C26.0714 3.60287 26.3596 3.89626 26.3596 4.25137C26.3596 4.60652 26.0714 4.88963 25.7162 4.88963C25.361 4.88963 25.0728 4.60652 25.0728 4.25137C25.0728 3.89625 25.361 3.60287 25.7162 3.60287Z" fill="black"/>
<path id="Vector_26" d="M5.11064 6.2203C5.32376 6.2203 5.49667 6.04739 5.49667 5.83427V5.68901C5.49667 5.47589 5.32376 5.30298 5.11064 5.30298C4.89752 5.30298 4.72461 5.47589 4.72461 5.68901V5.83427C4.72461 6.0474 4.89752 6.2203 5.11064 6.2203Z" fill="black"/>
<path id="Vector_27" d="M15.7513 2.91537C15.9644 2.91537 16.1373 2.74246 16.1373 2.52934V2.38408C16.1373 2.17096 15.9644 1.99805 15.7513 1.99805C15.5381 1.99805 15.3652 2.17096 15.3652 2.38408V2.52934C15.3652 2.74246 15.5381 2.91537 15.7513 2.91537Z" fill="black"/>
<path id="Vector_28" d="M20.2688 5.80917C20.482 5.80917 20.6549 5.63626 20.6549 5.42314V5.27788C20.6549 5.06476 20.482 4.89185 20.2688 4.89185C20.0557 4.89185 19.8828 5.06476 19.8828 5.27788V5.42314C19.8828 5.63626 20.0557 5.80917 20.2688 5.80917Z" fill="black"/>
<path id="Vector_29" d="M33.0755 9.67001C33.2886 9.67001 33.4615 9.4971 33.4615 9.28398V9.13871C33.4615 8.9256 33.2886 8.75269 33.0755 8.75269C32.8624 8.75269 32.6895 8.9256 32.6895 9.13871V9.28398C32.6895 9.4971 32.8624 9.67001 33.0755 9.67001Z" fill="black"/>
<path id="Vector_30" d="M30.5227 2.91549C30.7359 2.91549 30.9088 2.74258 30.9088 2.52946V2.3842C30.9088 2.17108 30.7359 1.99817 30.5227 1.99817C30.3096 1.99817 30.1367 2.17108 30.1367 2.3842V2.52946C30.1367 2.74258 30.3096 2.91549 30.5227 2.91549Z" fill="black"/>
<path id="Vector_31" d="M12.7669 28.512C12.5538 28.512 12.3809 28.6849 12.3809 28.898V29.0433C12.3809 29.2564 12.5538 29.4293 12.7669 29.4293C12.98 29.4293 13.1529 29.2564 13.1529 29.0433V28.898C13.1529 28.6849 12.98 28.512 12.7669 28.512Z" fill="black"/>
<path id="Vector_32" d="M17.4993 32.0964C17.2862 32.0964 17.1133 32.2693 17.1133 32.4825V32.6277C17.1133 32.8408 17.2862 33.0138 17.4993 33.0138C17.7124 33.0138 17.8853 32.8408 17.8853 32.6277V32.4825C17.8853 32.2693 17.7124 32.0964 17.4993 32.0964Z" fill="black"/>
<path id="Vector_33" d="M32.7083 28.4392C32.4952 28.4392 32.3223 28.6121 32.3223 28.8252V28.971C32.3223 29.1841 32.4952 29.357 32.7083 29.357C32.9214 29.357 33.0943 29.1841 33.0943 28.971V28.8252C33.0943 28.6121 32.9214 28.4392 32.7083 28.4392Z" fill="black"/>
<path id="Vector_34" d="M7.55595 30.2321C7.34283 30.2321 7.16992 30.405 7.16992 30.6181V30.7634C7.16992 30.9765 7.34283 31.1494 7.55595 31.1494C7.76907 31.1494 7.94198 30.9765 7.94198 30.7634V30.6181C7.94198 30.405 7.76907 30.2321 7.55595 30.2321Z" fill="black"/>
<path id="Vector_35" d="M2.20565 26.6136V26.4683C2.20565 26.2552 2.03274 26.0823 1.81962 26.0823C1.6065 26.0823 1.43359 26.2552 1.43359 26.4683V26.6136C1.43359 26.8267 1.6065 26.9996 1.81962 26.9996C2.03274 26.9996 2.20565 26.8267 2.20565 26.6136Z" fill="black"/>
</g>
</g>
</g>
</g>
</svg>
