<svg width="30" height="30" viewBox="0 0 30 30" fill="none" xmlns="http://www.w3.org/2000/svg">
<mask id="mask0_458_3264" style="mask-type:luminance" maskUnits="userSpaceOnUse" x="0" y="0" width="30" height="30">
<path d="M0 3.8147e-06H30V30H0V3.8147e-06Z" fill="white"/>
</mask>
<g mask="url(#mask0_458_3264)">
<path fill-rule="evenodd" clip-rule="evenodd" d="M17.9297 28.1836C17.9297 28.5072 18.192 28.7695 18.5156 28.7695H25.5469C25.8705 28.7695 26.1328 28.5072 26.1328 28.1836V18.6328C26.1328 18.3092 25.8705 18.0469 25.5469 18.0469C25.2233 18.0469 24.9609 18.3092 24.9609 18.6328V27.5977H18.5156C18.192 27.5977 17.9297 27.86 17.9297 28.1836Z" fill="#0C5295"/>
<path fill-rule="evenodd" clip-rule="evenodd" d="M3.86719 28.1836C3.86719 28.5072 4.12952 28.7695 4.45312 28.7695H11.4844C11.808 28.7695 12.0703 28.5072 12.0703 28.1836C12.0703 27.86 11.808 27.5977 11.4844 27.5977H5.03906V18.6328C5.03906 18.3092 4.77673 18.0469 4.45312 18.0469C4.12952 18.0469 3.86719 18.3092 3.86719 18.6328V28.1836Z" fill="#0C5295"/>
<path fill-rule="evenodd" clip-rule="evenodd" d="M0 28.1835C0 28.5071 0.262333 28.7695 0.585937 28.7695H4.45312C4.77673 28.7695 5.03906 28.5071 5.03906 28.1835C5.03906 27.8599 4.77673 27.5976 4.45312 27.5976H0.585937C0.262333 27.5976 0 27.8599 0 28.1835Z" fill="#0C5295"/>
<path fill-rule="evenodd" clip-rule="evenodd" d="M24.9609 28.1836C24.9609 28.5072 25.2233 28.7695 25.5469 28.7695H29.4141C29.7377 28.7695 30 28.5072 30 28.1836C30 27.86 29.7377 27.5977 29.4141 27.5977H25.5469C25.2233 27.5977 24.9609 27.86 24.9609 28.1836Z" fill="#0C5295"/>
<path fill-rule="evenodd" clip-rule="evenodd" d="M17.0718 6.38618C17.3006 6.61501 17.6716 6.61501 17.9005 6.38618L18.3687 5.91796H22.0312C23.3258 5.91796 24.375 4.86871 24.375 3.57421V1.81639C24.375 1.49279 24.1127 1.23046 23.7891 1.23046H16.6693C16.5139 1.23046 16.3649 1.29219 16.255 1.40207L14.5857 3.07141C14.3569 3.30023 14.3569 3.67123 14.5857 3.90005C14.8145 4.12887 15.1855 4.12887 15.4143 3.90005L16.912 2.40233H23.2031V3.57421C23.2031 4.2215 22.6785 4.74608 22.0312 4.74608H18.126C17.9706 4.74608 17.8215 4.80781 17.7117 4.9177L17.0718 5.55754C16.843 5.78637 16.843 6.15736 17.0718 6.38618Z" fill="#0C5295"/>
<path fill-rule="evenodd" clip-rule="evenodd" d="M4.68318 19.1864C3.18909 19.8244 1.39178 19.5343 0.171617 18.3142L4.68318 19.1864ZM1.45603 17.8584L12.9282 6.38622C13.157 6.1574 13.157 5.78641 12.9282 5.55758C12.6994 5.32876 12.3284 5.32876 12.0995 5.55758L0.171617 17.4855C0.0617325 17.5954 0 17.7444 0 17.8998C0 18.0552 0.0617325 18.2043 0.171617 18.3142M1.45603 17.8584C2.28335 18.4064 3.32839 18.4907 4.223 18.1086L4.22336 18.1085C4.55686 17.9663 4.87013 17.7587 5.1433 17.4855L5.14331 17.4855L14.5857 8.0437C14.8145 7.81489 15.1855 7.8149 15.4143 8.04373C15.6431 8.27256 15.6431 8.64355 15.4143 8.87237L5.97194 18.3142C5.97193 18.3142 5.97193 18.3142 5.97192 18.3142C5.59129 18.6948 5.15235 18.9863 4.68325 19.1863" fill="#0C5295"/>
<path fill-rule="evenodd" clip-rule="evenodd" d="M12.6562 15.8789C12.6562 17.1734 13.7055 18.2227 15 18.2227C16.2945 18.2227 17.3438 17.1734 17.3438 15.8789C17.3438 14.5844 16.2945 13.5352 15 13.5352C13.7055 13.5352 12.6562 14.5844 12.6562 15.8789ZM15 17.0508C14.3527 17.0508 13.8281 16.5262 13.8281 15.8789C13.8281 15.2316 14.3527 14.707 15 14.707C15.6473 14.707 16.1719 15.2316 16.1719 15.8789C16.1719 16.5262 15.6473 17.0508 15 17.0508Z" fill="#0C5295"/>
<path fill-rule="evenodd" clip-rule="evenodd" d="M10.8984 28.1836C10.8984 28.5072 11.1608 28.7695 11.4844 28.7695H18.5156C18.8392 28.7695 19.1016 28.5072 19.1016 28.1836V21.1523C19.1016 20.8287 18.8392 20.5664 18.5156 20.5664H11.4844C11.1608 20.5664 10.8984 20.8287 10.8984 21.1523V28.1836ZM12.0703 27.5977V21.7383H17.9297V27.5977H12.0703Z" fill="#0C5295"/>
<path fill-rule="evenodd" clip-rule="evenodd" d="M3.86719 24.668C3.86719 24.9916 4.12952 25.2539 4.45312 25.2539H11.4844C11.808 25.2539 12.0703 24.9916 12.0703 24.668C12.0703 24.3444 11.808 24.082 11.4844 24.082H4.45312C4.12952 24.082 3.86719 24.3444 3.86719 24.668Z" fill="#0C5295"/>
<path fill-rule="evenodd" clip-rule="evenodd" d="M17.9297 24.668C17.9297 24.9916 18.192 25.2539 18.5156 25.2539H25.5469C25.8705 25.2539 26.1328 24.9916 26.1328 24.668C26.1328 24.3444 25.8705 24.082 25.5469 24.082H18.5156C18.192 24.082 17.9297 24.3444 17.9297 24.668Z" fill="#0C5295"/>
<path fill-rule="evenodd" clip-rule="evenodd" d="M3.86719 21.1523C3.86719 21.4759 4.12952 21.7383 4.45312 21.7383H11.4844C11.808 21.7383 12.0703 21.4759 12.0703 21.1523C12.0703 20.8287 11.808 20.5664 11.4844 20.5664H4.45312C4.12952 20.5664 3.86719 20.8287 3.86719 21.1523Z" fill="#0C5295"/>
<path fill-rule="evenodd" clip-rule="evenodd" d="M17.9297 21.1523C17.9297 21.4759 18.192 21.7383 18.5156 21.7383H25.5469C25.8705 21.7383 26.1328 21.4759 26.1328 21.1523C26.1328 20.8287 25.8705 20.5664 25.5469 20.5664H18.5156C18.192 20.5664 17.9297 20.8287 17.9297 21.1523Z" fill="#0C5295"/>
<path fill-rule="evenodd" clip-rule="evenodd" d="M10.9605 28.4457C11.1052 28.7351 11.4572 28.8524 11.7466 28.7076C14.0995 27.5309 15.5861 25.1261 15.5861 22.4953V21.1523C15.5861 20.8287 15.3237 20.5664 15.0001 20.5664C14.6765 20.5664 14.4142 20.8287 14.4142 21.1523V22.4953C14.4142 24.6821 13.1785 26.6812 11.2224 27.6595C10.933 27.8043 10.8157 28.1563 10.9605 28.4457Z" fill="#0C5295"/>
<path d="M23.7891 11.7773C23.7891 12.1009 23.5267 12.3632 23.2031 12.3632C22.8795 12.3632 22.6172 12.1009 22.6172 11.7773C22.6172 11.4537 22.8795 11.1913 23.2031 11.1913C23.5267 11.1913 23.7891 11.4537 23.7891 11.7773Z" fill="#0C5295"/>
<path fill-rule="evenodd" clip-rule="evenodd" d="M25.3171 19.1864C26.8111 19.8243 28.6083 19.5342 29.8284 18.3141C29.9383 18.2042 30 18.0552 30 17.8998C30 17.7444 29.9383 17.5953 29.8284 17.4855L25.5247 13.1817C25.2958 12.9529 24.9249 12.9529 24.696 13.1817C24.4672 13.4106 24.4672 13.7816 24.696 14.0104L28.544 17.8583C27.7166 18.4064 26.6716 18.4906 25.777 18.1086L25.7766 18.1084C25.4431 17.9663 25.1299 17.7586 24.8567 17.4855L24.8567 17.4854L12.2883 4.91767C12.1785 4.80779 12.0294 4.74606 11.874 4.74606H7.96875C7.32146 4.74606 6.79687 4.22148 6.79687 3.57419V2.40231H13.0879L20.9699 10.2843C21.1988 10.5131 21.5698 10.5131 21.7986 10.2843C22.0274 10.0555 22.0274 9.68447 21.7986 9.45565L13.7449 1.40206C13.635 1.29217 13.486 1.23044 13.3306 1.23044H6.21094C5.88733 1.23044 5.625 1.49277 5.625 1.81638V3.57419C5.625 4.86869 6.67425 5.91794 7.96875 5.91794H11.6313L24.0281 18.3141C24.4088 18.6948 24.8478 18.9864 25.3171 19.1864" fill="#0C5295"/>
</g>
</svg>
