<svg width="45" height="45" viewBox="0 0 45 45" fill="none" xmlns="http://www.w3.org/2000/svg">
<rect width="45" height="45" rx="8" fill="white"/>
<path d="M18.0013 23C18.0013 20.2387 20.2391 17.9996 23.0005 17.9996C25.7618 17.9996 28.0008 20.2387 28.0008 23C28.0008 25.7613 25.7618 28.0004 23.0005 28.0004C20.2391 28.0004 18.0013 25.7613 18.0013 23ZM15.2982 23C15.2982 27.254 18.7465 30.7023 23.0005 30.7023C27.2544 30.7023 30.7028 27.254 30.7028 23C30.7028 18.746 27.2544 15.2977 23.0005 15.2977C18.7465 15.2977 15.2982 18.746 15.2982 23ZM29.2077 14.9923C29.2075 15.3483 29.313 15.6963 29.5106 15.9924C29.7083 16.2885 29.9893 16.5193 30.3182 16.6557C30.647 16.7921 31.0089 16.8279 31.3581 16.7586C31.7073 16.6892 32.0281 16.5179 32.28 16.2663C32.5318 16.0147 32.7034 15.694 32.7729 15.3449C32.8425 14.9957 32.807 14.6338 32.6709 14.3048C32.5348 13.9759 32.3042 13.6947 32.0083 13.4968C31.7124 13.2989 31.3644 13.1931 31.0084 13.193H31.0077C30.5305 13.1932 30.0729 13.3828 29.7354 13.7202C29.3979 14.0576 29.2081 14.5151 29.2077 14.9923ZM16.9405 35.2096C15.478 35.143 14.6832 34.8994 14.1549 34.6936C13.4546 34.421 12.9549 34.0963 12.4296 33.5716C11.9042 33.047 11.579 32.5478 11.3076 31.8475C11.1016 31.3195 10.858 30.5244 10.7916 29.0619C10.7188 27.4808 10.7043 27.0058 10.7043 23.0001C10.7043 18.9944 10.72 18.5208 10.7916 16.9383C10.8582 15.4759 11.1036 14.6823 11.3076 14.1528C11.5802 13.4524 11.9049 12.9528 12.4296 12.4274C12.9542 11.902 13.4534 11.5768 14.1549 11.3054C14.6829 11.0995 15.478 10.8559 16.9405 10.7894C18.5216 10.7167 18.9965 10.7022 23.0005 10.7022C27.0044 10.7022 27.4798 10.7179 29.0622 10.7894C30.5247 10.856 31.3182 11.1014 31.8478 11.3054C32.5481 11.5768 33.0478 11.9028 33.5732 12.4274C34.0985 12.952 34.4225 13.4524 34.6952 14.1528C34.9011 14.6808 35.1447 15.4759 35.2112 16.9383C35.2839 18.5208 35.2984 18.9944 35.2984 23.0001C35.2984 27.0058 35.2839 27.4795 35.2112 29.0619C35.1446 30.5244 34.8998 31.3192 34.6952 31.8475C34.4225 32.5478 34.0978 33.0475 33.5732 33.5716C33.0485 34.0958 32.5481 34.421 31.8478 34.6936C31.3198 34.8996 30.5247 35.1432 29.0622 35.2096C27.4811 35.2824 27.0062 35.2969 23.0005 35.2969C18.9947 35.2969 18.5211 35.2824 16.9405 35.2096ZM16.8163 8.09084C15.2194 8.16356 14.1283 8.41676 13.1754 8.78756C12.1885 9.17048 11.353 9.6842 10.5182 10.5177C9.68336 11.3512 9.17097 12.188 8.78805 13.1749C8.41725 14.1284 8.16405 15.219 8.09133 16.8158C8.01741 18.4152 8.00049 18.9265 8.00049 23C8.00049 27.0735 8.01741 27.5848 8.09133 29.1842C8.16405 30.7812 8.41725 31.8716 8.78805 32.8251C9.17097 33.8114 9.68348 34.6491 10.5182 35.4823C11.3529 36.3154 12.1885 36.8284 13.1754 37.2124C14.1301 37.5832 15.2194 37.8364 16.8163 37.9092C18.4165 37.9819 18.9269 38 23.0005 38C27.074 38 27.5853 37.9831 29.1846 37.9092C30.7816 37.8364 31.872 37.5832 32.8256 37.2124C33.8118 36.8284 34.6479 36.3158 35.4827 35.4823C36.3175 34.6488 36.8289 33.8114 37.2129 32.8251C37.5837 31.8716 37.8381 30.781 37.9096 29.1842C37.9823 27.5836 37.9992 27.0735 37.9992 23C37.9992 18.9265 37.9823 18.4152 37.9096 16.8158C37.8369 15.2188 37.5837 14.1278 37.2129 13.1749C36.8289 12.1886 36.3162 11.3526 35.4827 10.5177C34.6492 9.68288 33.8118 9.17048 32.8268 8.78756C31.872 8.41676 30.7815 8.16236 29.1858 8.09084C27.5865 8.01812 27.0752 8 23.0017 8C18.9281 8 18.4165 8.01692 16.8163 8.09084Z" fill="#132238"/>
<path d="M18.0013 23C18.0013 20.2387 20.2391 17.9996 23.0005 17.9996C25.7618 17.9996 28.0008 20.2387 28.0008 23C28.0008 25.7613 25.7618 28.0004 23.0005 28.0004C20.2391 28.0004 18.0013 25.7613 18.0013 23ZM15.2982 23C15.2982 27.254 18.7465 30.7023 23.0005 30.7023C27.2544 30.7023 30.7028 27.254 30.7028 23C30.7028 18.746 27.2544 15.2977 23.0005 15.2977C18.7465 15.2977 15.2982 18.746 15.2982 23ZM29.2077 14.9923C29.2075 15.3483 29.313 15.6963 29.5106 15.9924C29.7083 16.2885 29.9893 16.5193 30.3182 16.6557C30.647 16.7921 31.0089 16.8279 31.3581 16.7586C31.7073 16.6892 32.0281 16.5179 32.28 16.2663C32.5318 16.0147 32.7034 15.694 32.7729 15.3449C32.8425 14.9957 32.807 14.6338 32.6709 14.3048C32.5348 13.9759 32.3042 13.6947 32.0083 13.4968C31.7124 13.2989 31.3644 13.1931 31.0084 13.193H31.0077C30.5305 13.1932 30.0729 13.3828 29.7354 13.7202C29.3979 14.0576 29.2081 14.5151 29.2077 14.9923ZM16.9405 35.2096C15.478 35.143 14.6832 34.8994 14.1549 34.6936C13.4546 34.421 12.9549 34.0963 12.4296 33.5716C11.9042 33.047 11.579 32.5478 11.3076 31.8475C11.1016 31.3195 10.858 30.5244 10.7916 29.0619C10.7188 27.4808 10.7043 27.0058 10.7043 23.0001C10.7043 18.9944 10.72 18.5208 10.7916 16.9383C10.8582 15.4759 11.1036 14.6823 11.3076 14.1528C11.5802 13.4524 11.9049 12.9528 12.4296 12.4274C12.9542 11.902 13.4534 11.5768 14.1549 11.3054C14.6829 11.0995 15.478 10.8559 16.9405 10.7894C18.5216 10.7167 18.9965 10.7022 23.0005 10.7022C27.0044 10.7022 27.4798 10.7179 29.0622 10.7894C30.5247 10.856 31.3182 11.1014 31.8478 11.3054C32.5481 11.5768 33.0478 11.9028 33.5732 12.4274C34.0985 12.952 34.4225 13.4524 34.6952 14.1528C34.9011 14.6808 35.1447 15.4759 35.2112 16.9383C35.2839 18.5208 35.2984 18.9944 35.2984 23.0001C35.2984 27.0058 35.2839 27.4795 35.2112 29.0619C35.1446 30.5244 34.8998 31.3192 34.6952 31.8475C34.4225 32.5478 34.0978 33.0475 33.5732 33.5716C33.0485 34.0958 32.5481 34.421 31.8478 34.6936C31.3198 34.8996 30.5247 35.1432 29.0622 35.2096C27.4811 35.2824 27.0062 35.2969 23.0005 35.2969C18.9947 35.2969 18.5211 35.2824 16.9405 35.2096ZM16.8163 8.09084C15.2194 8.16356 14.1283 8.41676 13.1754 8.78756C12.1885 9.17048 11.353 9.6842 10.5182 10.5177C9.68336 11.3512 9.17097 12.188 8.78805 13.1749C8.41725 14.1284 8.16405 15.219 8.09133 16.8158C8.01741 18.4152 8.00049 18.9265 8.00049 23C8.00049 27.0735 8.01741 27.5848 8.09133 29.1842C8.16405 30.7812 8.41725 31.8716 8.78805 32.8251C9.17097 33.8114 9.68348 34.6491 10.5182 35.4823C11.3529 36.3154 12.1885 36.8284 13.1754 37.2124C14.1301 37.5832 15.2194 37.8364 16.8163 37.9092C18.4165 37.9819 18.9269 38 23.0005 38C27.074 38 27.5853 37.9831 29.1846 37.9092C30.7816 37.8364 31.872 37.5832 32.8256 37.2124C33.8118 36.8284 34.6479 36.3158 35.4827 35.4823C36.3175 34.6488 36.8289 33.8114 37.2129 32.8251C37.5837 31.8716 37.8381 30.781 37.9096 29.1842C37.9823 27.5836 37.9992 27.0735 37.9992 23C37.9992 18.9265 37.9823 18.4152 37.9096 16.8158C37.8369 15.2188 37.5837 14.1278 37.2129 13.1749C36.8289 12.1886 36.3162 11.3526 35.4827 10.5177C34.6492 9.68288 33.8118 9.17048 32.8268 8.78756C31.872 8.41676 30.7815 8.16236 29.1858 8.09084C27.5865 8.01812 27.0752 8 23.0017 8C18.9281 8 18.4165 8.01692 16.8163 8.09084Z" fill="#132238"/>
</svg>
