<svg width="45" height="45" viewBox="0 0 45 45" fill="none" xmlns="http://www.w3.org/2000/svg">
<rect width="45" height="45" rx="8" fill="white"/>
<path d="M8 11.7902C8 10.8275 8.33785 10.0332 9.01351 9.40743C9.68918 8.78163 10.5676 8.46875 11.6486 8.46875C12.7104 8.46875 13.5695 8.77681 14.2259 9.39299C14.9015 10.0284 15.2394 10.8564 15.2394 11.8769C15.2394 12.8011 14.9112 13.5713 14.2548 14.1875C13.5792 14.8229 12.6911 15.1406 11.5907 15.1406H11.5618C10.5 15.1406 9.64094 14.8229 8.98456 14.1875C8.32818 13.5521 8 12.753 8 11.7902ZM8.37645 37.0624V17.7689H14.805V37.0624H8.37645ZM18.3668 37.0624H24.7954V26.2893C24.7954 25.6153 24.8726 25.0954 25.027 24.7296C25.2973 24.0749 25.7075 23.5213 26.2577 23.0689C26.8079 22.6164 27.4981 22.3901 28.3282 22.3901C30.4904 22.3901 31.5714 23.8439 31.5714 26.7514V37.0624H38V26.0004C38 23.1507 37.3243 20.9893 35.973 19.5163C34.6216 18.0433 32.8359 17.3068 30.6158 17.3068C28.1255 17.3068 26.1853 18.3755 24.7954 20.5128V20.5705H24.7664L24.7954 20.5128V17.7689H18.3668C18.4054 18.3851 18.4247 20.3009 18.4247 23.5165C18.4247 26.7321 18.4054 31.2474 18.3668 37.0624Z" fill="#132238"/>
</svg>
