<svg width="30" height="30" viewBox="0 0 30 30" fill="none" xmlns="http://www.w3.org/2000/svg">
<rect width="30" height="30" rx="15" fill="#0C5295"/>
<path d="M14.9991 5C11.0052 5 7.75586 8.2493 7.75586 12.2432C7.75586 17.1998 14.2379 24.4763 14.5138 24.7836C14.773 25.0723 15.2256 25.0718 15.4844 24.7836C15.7604 24.4763 22.2423 17.1998 22.2423 12.2432C22.2423 8.2493 18.993 5 14.9991 5ZM14.9991 15.8875C12.9896 15.8875 11.3549 14.2527 11.3549 12.2432C11.3549 10.2337 12.9897 8.59898 14.9991 8.59898C17.0085 8.59898 18.6433 10.2338 18.6433 12.2432C18.6433 14.2527 17.0085 15.8875 14.9991 15.8875Z" fill="white"/>
</svg>
