<svg width="15" height="15" viewBox="0 0 15 15" fill="none" xmlns="http://www.w3.org/2000/svg">
<g clip-path="url(#clip0_141_3370)">
<path d="M7.5 0C3.36448 0 0 3.36448 0 7.5C0 11.6355 3.36448 15 7.5 15C11.6355 15 15 11.6355 15 7.5C15 3.36448 11.6355 0 7.5 0ZM7.5 14.2969C3.7522 14.2969 0.703125 11.2478 0.703125 7.5C0.703125 3.7522 3.7522 0.703125 7.5 0.703125C11.2478 0.703125 14.2969 3.7522 14.2969 7.5C14.2969 11.2478 11.2478 14.2969 7.5 14.2969ZM7.5 2.97363C5.61519 2.97363 4.08176 4.50703 4.08176 6.39185C4.08176 7.79584 5.76199 10.0702 7.22578 11.8948C7.29249 11.978 7.39336 12.0264 7.5 12.0264C7.60664 12.0264 7.70751 11.978 7.77422 11.8948L7.81957 11.8383C9.35186 9.92918 10.9182 7.78919 10.9182 6.39185C10.9182 4.50703 9.38481 2.97363 7.5 2.97363ZM7.50032 11.1119C6.59332 9.96855 4.78488 7.59038 4.78488 6.39185C4.78488 4.89475 6.00287 3.67676 7.5 3.67676C8.99713 3.67676 10.2151 4.89475 10.2151 6.39185C10.2151 7.6178 8.42065 9.9566 7.50032 11.1119ZM7.5 4.30775C6.3508 4.30775 5.41588 5.24268 5.41588 6.39187C5.41588 7.54107 6.35083 8.476 7.5 8.476C8.64917 8.476 9.58412 7.54107 9.58412 6.39187C9.58412 5.24268 8.6492 4.30775 7.5 4.30775ZM7.5 7.77284C6.73852 7.77284 6.119 7.15333 6.119 6.39185C6.119 5.63036 6.73852 5.01085 7.5 5.01085C8.26148 5.01085 8.881 5.63036 8.881 6.39185C8.881 7.15333 8.26148 7.77284 7.5 7.77284Z" fill="#0C5295"/>
</g>
<defs>
<clipPath id="clip0_141_3370">
<rect width="15" height="15" fill="white"/>
</clipPath>
</defs>
</svg>
