<svg width="35" height="35" viewBox="0 0 35 35" fill="none" xmlns="http://www.w3.org/2000/svg">
<g id="lock (1) 1" clip-path="url(#clip0_361_13331)">
<g id="Layer_x0020_1">
<g id="_1300654854336">
<path id="Vector" fill-rule="evenodd" clip-rule="evenodd" d="M26.5914 14.7021H24.8182C24.5734 14.7021 24.3752 14.5031 24.3752 14.2584V7.79434C24.3752 4.96289 22.0715 2.65918 19.2407 2.65918H15.7585C12.9271 2.65918 10.624 4.96289 10.624 7.79434V14.2584C10.624 14.5031 10.4258 14.7021 10.1804 14.7021H8.40781C8.16309 14.7021 7.96484 14.5031 7.96484 14.2584V7.79434C7.96484 3.49658 11.4607 0 15.7585 0H19.24C23.5378 0 27.0344 3.49658 27.0344 7.79434V14.2584C27.0344 14.5031 26.8361 14.7021 26.5914 14.7021Z" fill="black"/>
<path id="Vector_2" fill-rule="evenodd" clip-rule="evenodd" d="M5.06709 30.9702V15.3098C5.06709 14.486 5.73701 13.8154 6.56143 13.8154H28.4371C29.2615 13.8154 29.9321 14.486 29.9321 15.3098V30.9736V32.2396V33.5057C29.9321 34.3294 29.2615 35 28.4378 35H6.56143C5.73701 35 5.06641 34.3294 5.06641 33.5057V30.9736L5.06709 30.9702Z" fill="#0C5295"/>
<path id="Vector_3" fill-rule="evenodd" clip-rule="evenodd" d="M29.2405 31.4282H5.75908C4.01045 31.4282 2.58789 30.0056 2.58789 28.257V26.36C2.58789 24.6114 4.01045 23.1888 5.75908 23.1888H29.2405C30.9892 23.1888 32.4117 24.6114 32.4117 26.36V28.257C32.4117 30.0056 30.9892 31.4282 29.2405 31.4282Z" fill="white"/>
<g id="Group">
<path id="Vector_4" fill-rule="evenodd" clip-rule="evenodd" d="M10.6539 29.9297C10.4092 29.9297 10.2109 29.7315 10.2109 29.4867V25.1302C10.2109 24.5471 11.0969 24.5471 11.0969 25.1302V29.4867C11.0969 29.7315 10.8986 29.9297 10.6539 29.9297Z" fill="black"/>
<path id="Vector_5" fill-rule="evenodd" clip-rule="evenodd" d="M12.8328 27.7517H8.4769C7.89312 27.7517 7.89312 26.8651 8.4769 26.8651H12.8328C13.4166 26.8651 13.4166 27.7517 12.8328 27.7517Z" fill="black"/>
<path id="Vector_6" fill-rule="evenodd" clip-rule="evenodd" d="M12.1945 29.2919C12.081 29.2919 11.9676 29.2489 11.8807 29.1621L8.80116 26.0818C8.38827 25.6689 9.01512 25.0427 9.42801 25.4549L12.5076 28.5352C12.7879 28.8148 12.5862 29.2919 12.1945 29.2919Z" fill="black"/>
<path id="Vector_7" fill-rule="evenodd" clip-rule="evenodd" d="M9.11554 29.2919C8.72384 29.2919 8.52218 28.8148 8.80246 28.5352L11.882 25.4549C12.2949 25.0427 12.9218 25.6689 12.5089 26.0818L9.42863 29.1621C9.3425 29.2489 9.22902 29.2919 9.11554 29.2919Z" fill="black"/>
<path id="Vector_8" fill-rule="evenodd" clip-rule="evenodd" d="M17.4996 29.9297C17.2549 29.9297 17.0566 29.7315 17.0566 29.4867V25.1302C17.0566 24.5471 17.9426 24.5471 17.9426 25.1302V29.4867C17.9426 29.7315 17.7443 29.9297 17.4996 29.9297Z" fill="black"/>
<path id="Vector_9" fill-rule="evenodd" clip-rule="evenodd" d="M19.6785 27.7517H15.3226C14.7388 27.7517 14.7388 26.8651 15.3226 26.8651H19.6785C20.2623 26.8651 20.2623 27.7517 19.6785 27.7517Z" fill="black"/>
<path id="Vector_10" fill-rule="evenodd" clip-rule="evenodd" d="M19.0402 29.2919C18.9268 29.2919 18.8133 29.2489 18.7265 29.1621L15.6469 26.0818C15.234 25.6689 15.8608 25.0427 16.273 25.4549L19.3533 28.5352C19.6329 28.8148 19.4319 29.2919 19.0402 29.2919Z" fill="black"/>
<path id="Vector_11" fill-rule="evenodd" clip-rule="evenodd" d="M15.9595 29.2919C15.5678 29.2919 15.3661 28.8148 15.6457 28.5352L18.726 25.4549C19.1389 25.0427 19.7658 25.6689 19.3529 26.0818L16.2726 29.1621C16.1865 29.2489 16.073 29.2919 15.9595 29.2919Z" fill="black"/>
<path id="Vector_12" fill-rule="evenodd" clip-rule="evenodd" d="M24.346 29.9297C24.1013 29.9297 23.9023 29.7315 23.9023 29.4867V25.1302C23.9023 24.5471 24.789 24.5471 24.789 25.1302V29.4867C24.789 29.7315 24.5907 29.9297 24.346 29.9297Z" fill="black"/>
<path id="Vector_13" fill-rule="evenodd" clip-rule="evenodd" d="M26.5243 27.7519H22.1678C21.5847 27.7519 21.5847 26.8652 22.1678 26.8652H26.5243C27.1081 26.8652 27.1081 27.7519 26.5243 27.7519Z" fill="black"/>
<path id="Vector_14" fill-rule="evenodd" clip-rule="evenodd" d="M25.8862 29.2919C25.7728 29.2919 25.6593 29.2489 25.5725 29.1621L22.4922 26.0818C22.08 25.6689 22.7068 25.0427 23.1191 25.4549L26.1993 28.5352C26.4789 28.8148 26.2779 29.2919 25.8862 29.2919Z" fill="black"/>
<path id="Vector_15" fill-rule="evenodd" clip-rule="evenodd" d="M22.8052 29.2919C22.4135 29.2919 22.2119 28.8148 22.4914 28.5352L25.5717 25.4549C25.9846 25.0427 26.6115 25.6689 26.1986 26.0818L23.1183 29.1621C23.0322 29.2489 22.9187 29.2919 22.8052 29.2919Z" fill="black"/>
</g>
</g>
</g>
</g>
<defs>
<clipPath id="clip0_361_13331">
<rect width="35" height="35" fill="white"/>
</clipPath>
</defs>
</svg>
