<svg width="15" height="27" viewBox="0 0 15 27" fill="none" xmlns="http://www.w3.org/2000/svg">
<path id="Vector" fill-rule="evenodd" clip-rule="evenodd" d="M9.77961 11.4002V22.8413C9.77961 23.0672 9.96621 23.2503 10.1973 23.2503C10.428 23.2503 10.6153 23.0672 10.6153 22.8413V11.4002C10.6153 11.1743 10.428 10.9912 10.1973 10.9912C9.96621 10.9912 9.77961 11.1743 9.77961 11.4002ZM4.38455 11.4002V22.8413C4.38455 23.0672 4.57153 23.2503 4.80229 23.2503C5.03305 23.2503 5.22003 23.0672 5.22003 22.8413V11.4002C5.22003 11.1743 5.03305 10.9912 4.80229 10.9912C4.57159 10.9912 4.38455 11.1743 4.38455 11.4002ZM7.08211 11.4002V22.8413C7.08211 23.0672 7.26945 23.2503 7.49979 23.2503C7.73055 23.2503 7.91752 23.0672 7.91752 22.8413V11.4002C7.91752 11.1743 7.73055 10.9912 7.49979 10.9912C7.26939 10.9912 7.08211 11.1743 7.08211 11.4002ZM0.835414 11.8505V21.3612L1.70328 20.5117V12.7L0.835414 11.8505ZM1.62636 24.8078C1.19031 24.8078 0.835352 24.4603 0.835352 24.0332V22.5182L2.41627 20.9704C2.4946 20.8937 2.5387 20.7894 2.5387 20.6809V12.5304C2.5387 12.4219 2.4946 12.3179 2.41627 12.2412L0.835352 10.6934V8.83843C0.835352 8.41141 1.19025 8.0638 1.62636 8.0638H5.41012V8.62384C5.41012 9.04912 5.76362 9.39535 6.19826 9.39535H8.80156C9.23583 9.39535 9.58902 9.04918 9.58902 8.62384V8.0638H13.3735C13.8096 8.0638 14.1642 8.41135 14.1642 8.83843V10.6934L12.5836 12.2412C12.5049 12.3179 12.4612 12.4219 12.4612 12.5304V20.6809C12.4612 20.7894 12.5049 20.8937 12.5836 20.9704L14.1642 22.5182V24.0332C14.1642 24.4603 13.8096 24.8078 13.3735 24.8078H13.1389C12.616 24.2725 11.748 24.2734 11.2267 24.8078H3.7731C3.25089 24.2732 2.38357 24.2728 1.86019 24.8078H1.62636ZM2.81674 26.1818C3.08627 26.1818 3.30539 25.9673 3.30539 25.7033C3.30539 25.4393 3.08627 25.2248 2.81674 25.2248C2.54721 25.2248 2.32808 25.4393 2.32808 25.7033C2.32808 25.9673 2.54721 26.1818 2.81674 26.1818ZM12.1832 26.1818C12.452 26.1818 12.6715 25.9673 12.6715 25.7033C12.6715 25.4393 12.4521 25.2248 12.1832 25.2248C11.9137 25.2248 11.6939 25.4393 11.6939 25.7033C11.6939 25.9673 11.9137 26.1818 12.1832 26.1818ZM14.1642 11.8505L13.2966 12.7V20.5116L14.1642 21.3611V11.8505ZM8.75367 8.0638H6.2456V8.57718H8.75367V8.0638ZM9.95244 2.17419C9.95244 1.99589 9.80429 1.85045 9.62148 1.85045H9.58902V2.17833C9.58902 2.56666 9.26658 2.88279 8.8693 2.88279H6.12942C5.73287 2.88279 5.41006 2.56666 5.41006 2.17833V1.85045H5.3776C5.19559 1.85045 5.04738 1.99589 5.04738 2.17419V7.24569H9.95237L9.95244 2.17419ZM8.75367 0.818171V2.06468H6.2456V0.818171H8.75367ZM1.62636 7.24569H4.21203V2.17419C4.21203 1.5447 4.73492 1.03234 5.37766 1.03234H5.41012V0.704819C5.41012 0.316125 5.73293 0 6.12948 0H8.86936C9.26658 0 9.58908 0.316125 9.58908 0.704819V1.03234H9.62154C10.2647 1.03234 10.7879 1.5447 10.7879 2.17419V7.24569H13.3736C14.27 7.24569 15 7.96016 15 8.83843V24.0332C15 24.8683 14.3399 25.5548 13.5045 25.6205C13.5438 26.3845 12.9406 27 12.1833 27C11.4261 27 10.8194 26.3799 10.8613 25.626H4.13836C4.18906 26.3597 3.58209 27 2.8168 27C2.05414 27 1.44711 26.3683 1.49555 25.6205C0.660136 25.5548 0 24.8683 0 24.0332V8.83843C0 7.96016 0.729585 7.24569 1.62636 7.24569Z" fill="#0C5295"/>
</svg>
