<svg width="27" height="24" viewBox="0 0 27 24" fill="none" xmlns="http://www.w3.org/2000/svg">
<rect width="27" height="24" rx="5" fill="#D9ECFF"/>
<path d="M9.38477 4.44077C9.5466 4.44077 9.67773 4.30959 9.67773 4.1478V3.59045C9.67773 3.42866 9.5466 3.29749 9.38477 3.29749C9.22293 3.29749 9.0918 3.42866 9.0918 3.59045V4.14776C9.0918 4.30959 9.22297 4.44077 9.38477 4.44077Z" fill="#0C5295"/>
<path d="M9.0918 8.71533V9.27264C9.0918 9.43443 9.22293 9.56561 9.38477 9.56561C9.5466 9.56561 9.67773 9.43443 9.67773 9.27264V8.71533C9.67773 8.55354 9.5466 8.42236 9.38477 8.42236C9.22293 8.42236 9.0918 8.55354 9.0918 8.71533Z" fill="#0C5295"/>
<path d="M7.56198 5.02386C7.67627 5.13824 7.86178 5.13832 7.97631 5.02386C8.09073 4.90945 8.09073 4.72394 7.97627 4.60953L7.58217 4.21546C7.4678 4.10101 7.28229 4.10105 7.16784 4.21546C7.05342 4.32988 7.05342 4.51539 7.16788 4.6298L7.56198 5.02386Z" fill="#0C5295"/>
<path d="M11.2053 7.83923C11.0908 7.72481 10.9053 7.72481 10.7909 7.83923C10.6765 7.95364 10.6765 8.13915 10.7909 8.25356L11.185 8.64767C11.2994 8.76208 11.4849 8.76208 11.5994 8.64767C11.7138 8.53325 11.7138 8.34774 11.5994 8.23333L11.2053 7.83923Z" fill="#0C5295"/>
<path d="M6.54297 6.72449H7.10031C7.26215 6.72449 7.39328 6.59332 7.39328 6.43152C7.39328 6.26972 7.26215 6.13855 7.10031 6.13855H6.54297C6.38113 6.13855 6.25 6.26972 6.25 6.43152C6.25 6.59332 6.38113 6.72449 6.54297 6.72449Z" fill="#0C5295"/>
<path d="M11.375 6.43152C11.375 6.59332 11.5061 6.72449 11.668 6.72449H12.2253C12.3871 6.72449 12.5183 6.59332 12.5183 6.43152C12.5183 6.26972 12.3871 6.13855 12.2253 6.13855H11.668C11.5062 6.13855 11.375 6.26972 11.375 6.43152Z" fill="#0C5295"/>
<path d="M7.56229 7.83923L7.16819 8.23333C6.983 8.41853 7.11679 8.73349 7.37538 8.73349C7.45034 8.73349 7.52534 8.70489 7.58257 8.64767L7.97667 8.25356C8.09108 8.13915 8.09108 7.95364 7.97667 7.83923C7.86222 7.72481 7.67675 7.72481 7.56229 7.83923Z" fill="#0C5295"/>
<path d="M11.2053 5.02386L11.5994 4.6298C11.7138 4.51539 11.7138 4.32992 11.5994 4.21546C11.485 4.10105 11.2995 4.10101 11.1851 4.21546L10.7909 4.60953C10.6765 4.72394 10.6765 4.90941 10.7909 5.02386C10.9053 5.13828 11.0909 5.13832 11.2053 5.02386Z" fill="#0C5295"/>
<path d="M23.9992 19.73C23.9776 19.1921 23.4762 18.754 22.9146 18.8461C22.689 18.4146 23.675 20.3822 19.6248 12.2818L18.2365 9.50523C17.961 8.95418 17.1749 8.95602 16.9004 9.50523C16.7759 9.75418 15.9639 11.3782 15.7955 11.7148L14.1343 8.39227C13.8843 7.89203 13.1696 7.89203 12.9196 8.39227L11.5577 11.116C11.5001 11.2312 11.3352 11.232 11.2772 11.116C11.0271 10.6158 10.3125 10.6158 10.0624 11.116L7.85961 15.5218L7.79992 15.4024C7.61527 15.0331 7.09106 15.0369 6.90832 15.4024V15.4023C6.90832 15.4023 6.90832 15.4023 6.90832 15.4024L4.55121 20.1165H4.29297C4.13113 20.1165 4 20.2477 4 20.4095C4 20.5712 4.13113 20.7024 4.29297 20.7024C4.60934 20.7024 18.7329 20.7024 19.0484 20.7024C19.2102 20.7024 19.3413 20.5712 19.3413 20.4095C19.3413 20.2477 19.2102 20.1165 19.0484 20.1165H15.803C15.6721 20.1165 15.5668 20.0096 15.5686 19.8787C15.5704 19.7503 15.6896 19.6331 15.8287 19.6492C16.0519 19.6751 16.2522 19.5283 16.2942 19.3077C16.3442 19.0461 16.5739 18.8566 16.8402 18.8566C17.036 18.8566 17.2228 18.9618 17.3233 19.1383C17.4197 19.3076 17.616 19.394 17.8011 19.3534C17.8437 19.344 17.9418 19.3008 18.0766 19.3443C18.4191 19.4548 18.4846 19.1468 18.8149 19.2125C19.045 19.2584 19.2664 19.1023 19.2973 18.8717C19.3576 18.4204 19.7465 18.0802 20.202 18.0802C20.5309 18.0802 20.8358 18.2589 20.9977 18.5466C21.0917 18.7136 21.2709 18.8094 21.4534 18.8012C21.4955 18.7994 21.5379 18.792 21.5794 18.7787C21.927 18.6671 22.2883 18.8519 22.4212 19.1728C22.5101 19.3875 22.7455 19.4996 22.9686 19.4337C23.1885 19.3687 23.405 19.5366 23.4138 19.7534C23.4218 19.9532 23.2629 20.1165 23.0656 20.1165H20.4157C20.2538 20.1165 20.1227 20.2477 20.1227 20.4095C20.1227 20.5712 20.2538 20.7024 20.4157 20.7024H23.0656C23.5959 20.7024 24.0205 20.2628 23.9992 19.73ZM17.4245 9.76723C17.4839 9.64836 17.6532 9.64883 17.7124 9.76723C17.8254 9.99324 18.6793 11.7011 19.0073 12.357L17.9747 13.4121C17.9496 13.4376 17.9089 13.4393 17.8819 13.4161L17.2561 12.8776C16.9767 12.6371 16.5542 12.6748 16.3218 12.9614L15.9863 13.3752C15.9618 13.4055 15.9167 13.4091 15.8876 13.3823L15.7025 13.2111C16.8639 10.8883 16.834 10.9482 17.4245 9.76723ZM7.35406 15.821L8.15375 17.4204L7.7284 17.855L7.25945 17.4515C7.05035 17.2716 6.75668 17.2741 6.55387 17.4212L7.35406 15.821ZM5.20637 20.1165L6.06219 18.4048C6.48207 18.51 6.67023 18.1774 6.88988 17.9065L7.3577 18.309C7.58504 18.5047 7.92723 18.4896 8.13668 18.2757L8.43102 17.9749L9.50184 20.1165H5.20637ZM11.5947 20.1165H10.157L8.18715 16.1769L10.5866 11.378C10.6211 11.3091 10.7187 11.3091 10.7532 11.3781C11.027 11.9257 11.8083 11.9252 12.0819 11.3781L13.4438 8.6543C13.4782 8.58535 13.5758 8.58535 13.6103 8.6543L15.4681 12.3699C15.3021 12.7018 11.915 19.476 11.5947 20.1165ZM21.7548 18.1606C21.6595 18.163 21.5652 18.1761 21.4731 18.1997C21.1991 17.7614 20.7176 17.4942 20.202 17.4942C19.5145 17.4942 18.9193 17.9664 18.7509 18.6183C18.558 18.6139 18.3638 18.6632 18.1908 18.768C18.055 18.7344 17.9119 18.7304 17.7742 18.7564C17.5617 18.4544 17.2129 18.2706 16.8402 18.2706C16.3398 18.2706 15.9027 18.5966 15.753 19.0632C15.332 19.0888 14.9889 19.4373 14.9827 19.8703V19.8703C14.9816 19.9507 14.9945 20.0412 15.0164 20.1164H12.2499L15.4297 13.7568L15.4898 13.8124C15.4898 13.8124 15.4898 13.8124 15.4898 13.8124C15.7668 14.0686 16.2038 14.0374 16.4416 13.7442L16.7771 13.3304C16.8013 13.3005 16.8449 13.2967 16.874 13.3217L17.4998 13.8602C17.7605 14.0845 18.153 14.0676 18.3935 13.822L19.2846 12.9115L21.9119 18.1661C21.8604 18.1611 21.8071 18.1592 21.7548 18.1606Z" fill="#0C5295"/>
<path d="M9.38375 8.18445C10.0338 8.18445 10.6272 7.82738 10.9325 7.25265C11.0084 7.10976 10.9541 6.93238 10.8112 6.85644C10.6683 6.7805 10.4909 6.83488 10.415 6.97773C10.2116 7.36062 9.81648 7.59843 9.38375 7.59843C8.74031 7.59843 8.21684 7.07496 8.21684 6.43152C8.21684 5.78808 8.74031 5.2646 9.38375 5.2646C9.81648 5.2646 10.2116 5.50242 10.415 5.88531C10.4908 6.02816 10.6682 6.08253 10.8112 6.0066C10.9541 5.9307 11.0084 5.75335 10.9325 5.61039C10.6273 5.03562 10.0338 4.67859 9.38375 4.67859C8.41723 4.67859 7.63086 5.46492 7.63086 6.43148C7.63086 7.39804 8.41723 8.18445 9.38375 8.18445Z" fill="#0C5295"/>
</svg>
