<svg width="56" height="56" viewBox="0 0 56 56" fill="none" xmlns="http://www.w3.org/2000/svg">
<g clip-path="url(#clip0_460_5067)">
<path d="M53.9544 17.4664C52.5897 14.0891 50.5385 10.9227 47.8076 8.1923C45.077 5.46131 41.9104 3.41009 38.5331 2.04542C35.1554 0.680313 31.5668 0 27.9799 0C24.3982 0 20.8164 0.683484 17.4459 2.05012C14.0757 3.41633 10.9169 5.46744 8.19241 8.19241C5.46733 10.917 3.41622 14.0759 2.05012 17.4463C0.683484 20.8167 0 24.3985 0 27.9805C0 31.5674 0.680531 35.1558 2.04542 38.5336C3.41009 41.9108 5.46131 45.0773 8.1923 47.8077C10.9227 50.5385 14.0891 52.5898 17.4664 53.9545C20.8441 55.3195 24.4325 55.9999 28.0194 56.0001C31.6012 56.0001 35.1831 55.3166 38.5538 53.9501C41.9241 52.584 45.083 50.533 47.8077 47.8078C50.5328 45.0831 52.5839 41.9242 53.95 38.5538C55.3165 35.1832 56 31.6014 56.0001 28.0194C56 24.4325 55.3195 20.8441 53.9544 17.4664ZM50.4887 37.1503C49.3052 40.0688 47.5336 42.7993 45.1666 45.1666C42.7994 47.5335 40.0689 49.305 37.1504 50.4887C34.2324 51.6719 31.1263 52.2651 28.0194 52.2651C24.9047 52.2651 21.7908 51.6738 18.866 50.4917C15.9409 49.309 13.2047 47.5377 10.8334 45.1667C8.46234 42.7952 6.69091 40.0591 5.50845 37.1339C4.32633 34.2091 3.73505 31.0951 3.73516 27.9804C3.73505 24.8736 4.3283 21.7677 5.51141 18.8496C6.69495 15.9311 8.4665 13.2006 10.8335 10.8334C13.2007 8.4665 15.9311 6.69495 18.8495 5.5113C21.7674 4.32808 24.8733 3.73483 27.9801 3.73483C31.0949 3.73483 34.209 4.326 37.1338 5.50813C40.059 6.69058 42.7953 8.46202 45.1668 10.8332C47.5379 13.2046 49.3092 15.9406 50.4918 18.8658C51.6739 21.7906 52.2652 24.9045 52.2652 28.0191C52.2651 31.1262 51.6719 34.2322 50.4887 37.1503Z" fill="#0C5295"/>
<path d="M30.5841 28.0001L39.6286 18.9556C40.3423 18.2419 40.3423 17.085 39.6286 16.3714C38.915 15.6578 37.7581 15.6578 37.0444 16.3714L27.9999 25.416L18.9553 16.3715C18.2416 15.6579 17.0848 15.6579 16.3711 16.3715C15.6575 17.085 15.6575 18.242 16.3711 18.9557L25.4157 28.0002L16.3711 37.0448C15.6575 37.7582 15.6575 38.9153 16.3711 39.629C17.0848 40.3425 18.2416 40.3425 18.9553 39.629L27.9999 30.5843L37.0444 39.6289C37.7581 40.3424 38.9149 40.3424 39.6286 39.6289C40.3423 38.9153 40.3423 37.7583 39.6286 37.0447L30.5841 28.0001Z" fill="#0C5295"/>
</g>
<defs>
<clipPath id="clip0_460_5067">
<rect width="56" height="56" fill="white"/>
</clipPath>
</defs>
</svg>
