<svg width="27" height="24" viewBox="0 0 27 24" fill="none" xmlns="http://www.w3.org/2000/svg">
<rect width="27" height="24" rx="5" fill="#D9ECFF"/>
<g clip-path="url(#clip0_460_5455)">
<path d="M18.1875 17.4219C18.0484 17.4219 17.9125 17.4631 17.7969 17.5404C17.6812 17.6176 17.5911 17.7274 17.5379 17.8559C17.4847 17.9844 17.4708 18.1258 17.4979 18.2622C17.525 18.3986 17.592 18.5239 17.6903 18.6222C17.7886 18.7205 17.9139 18.7875 18.0503 18.8146C18.1867 18.8417 18.3281 18.8278 18.4566 18.7746C18.5851 18.7214 18.6949 18.6313 18.7721 18.5156C18.8494 18.4 18.8906 18.2641 18.8906 18.125C18.8906 17.9385 18.8165 17.7597 18.6847 17.6278C18.5528 17.496 18.374 17.4219 18.1875 17.4219ZM18.1875 18.3594C18.1411 18.3594 18.0958 18.3456 18.0573 18.3199C18.0187 18.2941 17.9887 18.2575 17.971 18.2147C17.9532 18.1719 17.9486 18.1247 17.9576 18.0793C17.9667 18.0338 17.989 17.992 18.0218 17.9593C18.0545 17.9265 18.0963 17.9042 18.1418 17.8951C18.1872 17.8861 18.2344 17.8907 18.2772 17.9085C18.32 17.9262 18.3566 17.9562 18.3824 17.9948C18.4081 18.0333 18.4219 18.0786 18.4219 18.125C18.4219 18.1872 18.3972 18.2468 18.3532 18.2907C18.3093 18.3347 18.2497 18.3594 18.1875 18.3594Z" fill="#0C5295"/>
<path d="M8.8125 17.4219C8.67344 17.4219 8.53749 17.4631 8.42187 17.5404C8.30624 17.6176 8.21612 17.7274 8.1629 17.8559C8.10968 17.9844 8.09576 18.1258 8.12289 18.2622C8.15002 18.3986 8.21698 18.5239 8.31532 18.6222C8.41365 18.7205 8.53893 18.7875 8.67533 18.8146C8.81172 18.8417 8.9531 18.8278 9.08157 18.7746C9.21005 18.7214 9.31987 18.6313 9.39713 18.5156C9.47439 18.4 9.51563 18.2641 9.51563 18.125C9.51563 17.9385 9.44155 17.7597 9.30968 17.6278C9.17782 17.496 8.99898 17.4219 8.8125 17.4219ZM8.8125 18.3594C8.76615 18.3594 8.72083 18.3456 8.68229 18.3199C8.64375 18.2941 8.61371 18.2575 8.59597 18.2147C8.57823 18.1719 8.57359 18.1247 8.58263 18.0793C8.59167 18.0338 8.61399 17.992 8.64677 17.9593C8.67955 17.9265 8.72131 17.9042 8.76678 17.8951C8.81224 17.8861 8.85937 17.8907 8.90219 17.9085C8.94502 17.9262 8.98162 17.9562 9.00738 17.9948C9.03313 18.0333 9.04688 18.0786 9.04688 18.125C9.04688 18.1872 9.02218 18.2468 8.97823 18.2907C8.93427 18.3347 8.87466 18.3594 8.8125 18.3594Z" fill="#0C5295"/>
<path d="M13.2656 15.0781H12.3281V15.5469H13.2656V15.0781Z" fill="#0C5295"/>
<path d="M19.5938 5.23438H16.3125C16.0018 5.23475 15.704 5.35833 15.4843 5.57802C15.2646 5.79771 15.141 6.09556 15.1406 6.40625V9.6875C15.141 9.99819 15.2646 10.296 15.4843 10.5157C15.704 10.7354 16.0018 10.859 16.3125 10.8594H17.25V13.5746L17.1724 13.497C16.5451 12.8702 15.8673 12.2961 15.1458 11.7805C14.7344 11.4854 14.2406 11.3272 13.7344 11.3281H9.51562C9.12132 11.3287 8.73546 11.4424 8.40394 11.6559C8.07242 11.8694 7.80919 12.1736 7.64555 12.5323C7.17741 13.5583 6.93591 14.673 6.9375 15.8007V16.2795C6.73638 16.3318 6.55826 16.4493 6.43103 16.6136C6.30381 16.7779 6.23464 16.9797 6.23438 17.1875C6.23492 17.4398 6.32257 17.6842 6.4825 17.8793C6.64243 18.0744 6.86484 18.2083 7.11211 18.2584L7.17937 18.2717C7.21488 18.6722 7.39633 19.0456 7.68921 19.321C7.98208 19.5964 8.36596 19.7545 8.76783 19.7653C9.1697 19.7762 9.56154 19.6389 9.86881 19.3797C10.1761 19.1205 10.3774 18.7573 10.4344 18.3594H16.5656C16.6221 18.7529 16.8197 19.1125 17.1217 19.3711C17.4236 19.6298 17.8092 19.7699 18.2068 19.7653C18.6043 19.7608 18.9866 19.6119 19.2825 19.3463C19.5785 19.0808 19.7678 18.7168 19.8152 18.3221C20.118 18.2486 20.3825 18.0647 20.5568 17.8065C20.6932 17.6025 20.7659 17.3626 20.7656 17.1172C20.7647 16.4796 20.5593 15.8592 20.1796 15.347C19.8 14.8348 19.266 14.4579 18.6562 14.2716V10.8594H19.5938C19.9044 10.859 20.2023 10.7354 20.422 10.5157C20.6417 10.296 20.7653 9.99819 20.7656 9.6875V6.40625C20.7653 6.09556 20.6417 5.79771 20.422 5.57802C20.2023 5.35833 19.9044 5.23475 19.5938 5.23438ZM8.07211 12.7264C8.19846 12.4495 8.40165 12.2147 8.65755 12.0499C8.91344 11.8852 9.21127 11.7973 9.51562 11.7969H13.7344C14.143 11.7962 14.5414 11.9239 14.8734 12.162C15.5743 12.6625 16.2328 13.2199 16.8422 13.8284L17.153 14.1406H16.5841C16.01 13.5753 15.3925 13.0559 14.7373 12.587C14.4449 12.3774 14.0941 12.265 13.7344 12.2656H9.51562C9.25626 12.2661 9.00247 12.341 8.7844 12.4814C8.56633 12.6218 8.39314 12.8219 8.28539 13.0578C8.20523 13.2343 8.13422 13.4152 8.06883 13.5969L7.7557 13.5523C7.84483 13.271 7.95048 12.9953 8.07211 12.7264ZM16.3828 14.6218C16.5669 15.174 16.5974 15.7659 16.4709 16.3341L16.125 17.8906H12.2766L11.966 16.6484C11.8237 16.0791 11.8237 15.4834 11.966 14.9141L12.0422 14.6094H16.3781L16.3828 14.6218ZM8.97047 16.4923L8.50945 15.4166C8.43667 15.2465 8.31553 15.1015 8.16107 14.9997C8.00661 14.8978 7.82563 14.8436 7.64062 14.8438H7.47C7.50624 14.562 7.55883 14.2826 7.6275 14.007L11.569 14.5695L11.5116 14.8002C11.3503 15.4438 11.3503 16.1173 11.5116 16.7609L11.7937 17.8906H10.4344C10.3816 17.5275 10.2088 17.1925 9.94349 16.9391C9.67817 16.6857 9.33561 16.5284 8.97047 16.4923ZM12.0938 14.1406V12.7344H13.7344C13.9964 12.7339 14.252 12.8159 14.4649 12.9688C14.9691 13.3291 15.4503 13.7205 15.9059 14.1406H12.0938ZM11.625 12.7344V14.1048L8.54227 13.6644C8.59477 13.5256 8.65031 13.3873 8.71195 13.2519C8.78234 13.0977 8.89548 12.9671 9.03794 12.8753C9.1804 12.7836 9.34619 12.7347 9.51562 12.7344H11.625ZM6.70312 17.1875C6.70312 17.0632 6.75251 16.944 6.84042 16.856C6.92833 16.7681 7.04755 16.7188 7.17188 16.7188C7.23404 16.7188 7.29365 16.6941 7.3376 16.6501C7.38156 16.6061 7.40625 16.5465 7.40625 16.4844V15.8007C7.40625 15.6366 7.41328 15.4745 7.42383 15.3125H7.64062C7.73389 15.3124 7.82512 15.3398 7.90299 15.3911C7.98087 15.4424 8.04195 15.5155 8.07867 15.6012L8.47242 16.5202C8.15972 16.5871 7.87327 16.7436 7.64812 16.9707C7.42297 17.1977 7.26888 17.4855 7.20469 17.7987C7.06345 17.7703 6.93638 17.6939 6.84498 17.5825C6.75358 17.4711 6.70347 17.3316 6.70312 17.1875ZM8.8125 19.2969C8.58072 19.2969 8.35416 19.2281 8.16144 19.0994C7.96873 18.9706 7.81853 18.7876 7.72983 18.5735C7.64113 18.3593 7.61793 18.1237 7.66314 17.8964C7.70836 17.6691 7.81997 17.4602 7.98386 17.2964C8.14775 17.1325 8.35656 17.0209 8.58388 16.9756C8.8112 16.9304 9.04682 16.9536 9.26096 17.0423C9.47509 17.131 9.65811 17.2812 9.78688 17.4739C9.91565 17.6667 9.98438 17.8932 9.98438 18.125C9.984 18.4357 9.86042 18.7335 9.64073 18.9532C9.42104 19.1729 9.12319 19.2965 8.8125 19.2969ZM18.1875 19.2969C17.9557 19.2969 17.7292 19.2281 17.5364 19.0994C17.3437 18.9706 17.1935 18.7876 17.1048 18.5735C17.0161 18.3593 16.9929 18.1237 17.0381 17.8964C17.0834 17.6691 17.195 17.4602 17.3589 17.2964C17.5227 17.1325 17.7316 17.0209 17.9589 16.9756C18.1862 16.9304 18.4218 16.9536 18.636 17.0423C18.8501 17.131 19.0331 17.2812 19.1619 17.4739C19.2906 17.6667 19.3594 17.8932 19.3594 18.125C19.359 18.4357 19.2354 18.7335 19.0157 18.9532C18.796 19.1729 18.4982 19.2965 18.1875 19.2969ZM20.1668 17.5459C20.0773 17.6772 19.9494 17.7778 19.8007 17.8339C19.7394 17.4929 19.5715 17.1801 19.3212 16.9405C19.0709 16.7009 18.7511 16.5469 18.4077 16.5005C18.0643 16.4541 17.7151 16.5178 17.4102 16.6825C17.1053 16.8471 16.8605 17.1042 16.7109 17.4167L16.9287 16.4359C17.0637 15.8316 17.0421 15.2029 16.8661 14.6094H17.7891C18.2623 14.6094 18.7257 14.7442 19.125 14.9982V15.7812C19.125 16.0299 19.2238 16.2683 19.3996 16.4442C19.5754 16.62 19.8139 16.7188 20.0625 16.7188H20.2622C20.2844 16.8504 20.296 16.9837 20.2969 17.1172C20.297 17.2698 20.2517 17.419 20.1668 17.5459ZM20.1394 16.25H20.0625C19.9382 16.25 19.819 16.2006 19.731 16.1127C19.6431 16.0248 19.5938 15.9056 19.5938 15.7812V15.3798C19.8336 15.6292 20.0194 15.9254 20.1394 16.25ZM18.1875 14.1699C18.0644 14.1524 17.9403 14.1426 17.816 14.1406L17.7188 14.0434V10.8594H18.1875V14.1699ZM20.2969 9.6875C20.2969 9.87398 20.2228 10.0528 20.0909 10.1847C19.9591 10.3165 19.7802 10.3906 19.5938 10.3906H16.3125C16.126 10.3906 15.9472 10.3165 15.8153 10.1847C15.6835 10.0528 15.6094 9.87398 15.6094 9.6875V6.40625C15.6094 6.21977 15.6835 6.04093 15.8153 5.90907C15.9472 5.7772 16.126 5.70312 16.3125 5.70312H19.5938C19.7802 5.70312 19.9591 5.7772 20.0909 5.90907C20.2228 6.04093 20.2969 6.21977 20.2969 6.40625V9.6875Z" fill="#0C5295"/>
<path d="M18.4219 6.17188H17.0156C16.9535 6.17188 16.8939 6.19657 16.8499 6.24052C16.8059 6.28448 16.7812 6.34409 16.7812 6.40625V9.92188H17.25V8.51562H18.4219C18.7327 8.51562 19.0307 8.39216 19.2505 8.17239C19.4703 7.95262 19.5938 7.65455 19.5938 7.34375C19.5938 7.03295 19.4703 6.73488 19.2505 6.51511C19.0307 6.29534 18.7327 6.17188 18.4219 6.17188ZM18.4219 8.04688H17.25V6.64062H18.4219C18.6084 6.64062 18.7872 6.7147 18.9191 6.84657C19.0509 6.97843 19.125 7.15727 19.125 7.34375C19.125 7.53023 19.0509 7.70907 18.9191 7.84093C18.7872 7.9728 18.6084 8.04688 18.4219 8.04688Z" fill="#0C5295"/>
</g>
<defs>
<clipPath id="clip0_460_5455">
<rect width="15" height="15" fill="white" transform="translate(6 5)"/>
</clipPath>
</defs>
</svg>
