<svg width="25" height="24" viewBox="0 0 25 24" fill="none" xmlns="http://www.w3.org/2000/svg">
<g clip-path="url(#clip0_282_179)">
<path d="M10.0614 19.3104C12.2852 19.3105 14.4455 18.5948 16.1999 17.2766L22.8189 23.6614C23.3134 24.122 24.1013 24.1088 24.5788 23.6319C25.0447 23.1666 25.0447 22.429 24.5788 21.9638L17.9598 15.579C21.3507 11.3685 20.5611 5.30356 16.1961 2.03266C11.8311 -1.23825 5.54372 -0.47657 2.15281 3.73397C-1.2381 7.94451 -0.448477 14.0094 3.91654 17.2803C5.67386 18.5972 7.83604 19.3115 10.0614 19.3104ZM4.74304 4.52753C7.68029 1.69417 12.4425 1.69412 15.3798 4.52742C18.3171 7.36073 18.3172 11.9544 15.3799 14.7878C12.4427 17.6211 7.68045 17.6212 4.74315 14.7879C4.74309 14.7878 4.74309 14.7878 4.74304 14.7878C1.80579 11.9751 1.78848 7.39817 4.70433 4.56487C4.71722 4.55239 4.7301 4.53996 4.74304 4.52753Z" fill="#0C5295"/>
</g>
<defs>
<clipPath id="clip0_282_179">
<rect width="24.8805" height="24" fill="white" transform="translate(0.0477295)"/>
</clipPath>
</defs>
</svg>
