<svg width="20" height="20" viewBox="0 0 20 20" fill="none" xmlns="http://www.w3.org/2000/svg">
<g id="shopping-tag 1" clip-path="url(#clip0_101_4220)">
<path id="Vector" d="M1.28303 15.6251L8.15867 19.4502C9.09833 19.9729 10.3199 19.5632 10.8872 18.5352L15.9228 9.40591C16.1951 8.91237 16.2798 8.33996 16.1585 7.81175L14.6072 1.05433C14.4792 0.496282 13.931 0.191289 13.3918 0.37822L6.86483 2.64139C6.35468 2.81832 5.91631 3.1938 5.64406 3.68749L0.608372 12.8168C0.0412889 13.845 0.343378 15.1024 1.28303 15.6251Z" fill="white"/>
<path id="Vector_2" d="M9.03932 20C8.67595 20.0002 8.32047 19.9097 8.00112 19.7321L1.12548 15.907C0.0322834 15.299 -0.326579 13.8427 0.32518 12.6612L5.36086 3.5317C5.67344 2.96526 6.16972 2.54075 6.75841 2.33656L13.2854 0.0732316C13.6334 -0.0470881 13.9963 -0.0183791 14.3076 0.153714C14.6202 0.326774 14.8379 0.620799 14.921 0.981919L16.472 7.7395C16.6119 8.34819 16.5167 8.99544 16.2045 9.56155L11.1688 18.6908C10.8404 19.2862 10.2924 19.7308 9.66512 19.9108C9.45754 19.9705 9.24706 20 9.03932 20ZM13.712 0.645637C13.641 0.645637 13.5684 0.657895 13.4966 0.682733L6.9697 2.94623C6.5318 3.09816 6.16101 3.41686 5.92569 3.84346L0.890166 12.9728C0.409532 13.844 0.655656 14.9074 1.43902 15.3432L8.31466 19.1683C8.66595 19.3637 9.08206 19.407 9.48722 19.2908C9.95075 19.1579 10.3578 18.8255 10.604 18.3794L15.6396 9.25011C15.8753 8.82318 15.9475 8.33787 15.8434 7.88385L14.2921 1.12627C14.2506 0.946275 14.1452 0.801117 13.995 0.718055C13.9081 0.66983 13.8115 0.645637 13.712 0.645637Z" fill="#2176B1"/>
<path id="Vector_3" d="M10.3152 4.59199C10.6649 3.95814 11.4783 3.73895 12.1318 4.10249C12.7853 4.46603 13.0318 5.27472 12.6821 5.90873C12.3324 6.54259 11.5191 6.76178 10.8655 6.39824C10.212 6.0347 9.96555 5.22601 10.3152 4.59199Z" fill="#6CD4A3"/>
<path id="Vector_4" d="M11.5349 6.89709C11.2498 6.89709 10.9669 6.82386 10.7084 6.68016C9.90095 6.23081 9.59773 5.22423 10.0326 4.43634C10.2395 4.06119 10.5829 3.78862 10.9993 3.6691C11.432 3.54475 11.8895 3.59894 12.2883 3.82055C13.0959 4.26973 13.3991 5.27648 12.9643 6.06453C12.7573 6.43968 12.414 6.71209 11.9975 6.83161C11.8451 6.87548 11.6898 6.89709 11.5349 6.89709ZM11.4608 4.24925C11.3656 4.24925 11.2703 4.26247 11.1771 4.28925C10.9267 4.36102 10.7208 4.52392 10.5972 4.74795C10.3337 5.22568 10.5243 5.83953 11.0221 6.1163C11.27 6.2542 11.553 6.28807 11.8193 6.21162C12.0698 6.13985 12.2757 5.97695 12.3993 5.75308C12.6628 5.27535 12.4722 4.66134 11.9745 4.38457C11.8133 4.29489 11.6372 4.24925 11.4608 4.24925Z" fill="#2176B1"/>
<path id="Vector_5" d="M10.7829 11.6275L6.49462 9.24188L4.28516 13.2478L8.57328 15.6333L10.7829 11.6275Z" fill="white"/>
<g id="Group">
<path id="Vector_6" d="M8.57376 15.9559C8.51941 15.9559 8.46538 15.9422 8.41699 15.9153L4.12871 13.5297C3.97339 13.4432 3.91726 13.2476 4.00306 13.0919L6.21269 9.08623C6.25414 9.01107 6.32365 8.95559 6.40623 8.93188C6.48865 8.90833 6.5772 8.91833 6.65203 8.9601L10.9403 11.3457C11.0956 11.4321 11.1518 11.6278 11.0658 11.7834L8.85617 15.7891C8.81472 15.8643 8.74521 15.9198 8.66263 15.9435C8.63344 15.9517 8.6036 15.9559 8.57376 15.9559ZM4.72321 13.1219L8.44763 15.194L10.3457 11.7533L6.62123 9.68121L4.72321 13.1219Z" fill="#2176B1"/>
<path id="Vector_7" d="M16.4784 5.5181C16.0573 5.5181 15.7075 5.43133 15.3393 5.34004C14.903 5.23165 14.4517 5.11972 13.7788 5.11682C13.0688 5.11537 12.3511 5.23665 11.6477 5.48213C11.479 5.54084 11.2955 5.45181 11.2368 5.28391C11.1782 5.11569 11.2669 4.93166 11.435 4.87295C12.1984 4.60683 12.978 4.47183 13.7525 4.47183H13.7816C14.5319 4.47506 15.0433 4.60199 15.4946 4.71392C15.871 4.80747 16.1955 4.88779 16.5868 4.87086C17.5252 4.82908 18.4816 4.22845 19.4293 3.08509C19.5432 2.94768 19.7467 2.92897 19.8835 3.04251C20.0208 3.15622 20.0398 3.3596 19.9261 3.4967C18.8572 4.78602 17.7434 5.4652 16.6155 5.51536C16.5691 5.51713 16.5234 5.5181 16.4784 5.5181Z" fill="#2176B1"/>
</g>
</g>
<defs>
<clipPath id="clip0_101_4220">
<rect width="20" height="20" fill="white"/>
</clipPath>
</defs>
</svg>
