<svg width="57" height="56" viewBox="0 0 57 56" fill="none" xmlns="http://www.w3.org/2000/svg">
<g clip-path="url(#clip0_460_5017)">
<path d="M53.3136 28.0069C54.4919 25.6578 55.4195 23.2965 56.0634 20.9697C58.0821 13.6791 57.1046 7.57421 53.3102 3.78026C49.5162 -0.0136896 43.4113 -0.991657 36.1208 1.02708C33.794 1.67094 31.4326 2.59892 29.0836 3.77684C26.1612 2.3101 23.2346 1.23686 20.4148 0.618635C13.8651 -0.816913 8.34461 0.305891 4.87067 3.78026C2.64087 6.01006 1.3476 9.14306 1.13141 12.8409C0.937012 16.1674 1.61121 19.9849 3.08051 23.9172C1.87396 24.8713 1.09766 26.3461 1.09766 28C1.09766 29.6539 1.87396 31.1287 3.08051 32.0828C1.61121 36.0152 0.937012 39.833 1.13141 43.1591C1.34802 46.857 2.64087 49.99 4.87067 52.2198C7.36066 54.7102 10.8543 55.9941 15.0742 55.9941C15.9214 55.9941 16.7981 55.9424 17.7022 55.8381C21.3205 55.4207 25.1867 54.1881 29.0891 52.2257C31.4364 53.4028 33.7961 54.3295 36.1208 54.9729C38.6018 55.66 40.9457 56 43.108 56C47.2988 56 50.8074 54.7226 53.3102 52.2198C56.7846 48.7458 57.9074 43.2254 56.4718 36.6753C55.8536 33.8559 54.7803 30.9292 53.3136 28.0069ZM36.5591 2.61089C43.2545 0.757063 48.7908 1.58507 52.1481 4.94237C55.5054 8.29967 56.3334 13.8359 54.4796 20.5313C53.9605 22.4069 53.2474 24.3082 52.3604 26.2077C50.7711 23.3576 48.8164 20.5335 46.5516 17.8397C47.2454 16.9553 47.6607 15.8423 47.6607 14.6336C47.6607 13.4651 47.2826 12.3611 46.5665 11.4408L45.2694 12.4495C45.759 13.0789 46.0175 13.8342 46.0175 14.6336C46.0175 16.5972 44.42 18.1943 42.4568 18.1943C40.4936 18.1943 38.8962 16.5972 38.8962 14.6336C38.8962 12.67 40.4936 11.0729 42.4568 11.0729C43.0977 11.0729 43.7262 11.2447 44.2735 11.5702L45.1135 10.1578C44.3119 9.68139 43.3934 9.42931 42.4568 9.42931C41.2482 9.42931 40.1352 9.84503 39.2512 10.5389C36.557 8.27404 33.7329 6.31939 30.8827 4.7296C32.7823 3.84307 34.6835 3.12999 36.5591 2.61089ZM6.03278 4.94237C10.4757 0.499434 18.6225 0.665205 27.2913 4.7249C23.0594 7.08501 18.9087 10.2454 15.122 14.0316C12.3142 16.8395 9.84297 19.8554 7.76698 23.0038C7.29914 22.8679 6.80695 22.7957 6.30195 22.7957C5.6803 22.7957 5.08429 22.906 4.53101 23.1063C1.68384 15.3463 2.21704 8.75768 6.03278 4.94237ZM15.1169 54.3449C11.3994 54.3449 8.23908 53.264 6.03235 51.0577C2.21704 47.2423 1.68341 40.6542 4.53101 32.8937C5.08429 33.0945 5.6803 33.2043 6.30195 33.2043C6.80994 33.2043 7.30042 33.1295 7.76527 32.9932C9.84126 36.1429 12.3133 39.1597 15.122 41.9684C18.9074 45.7534 23.0569 48.9129 27.2874 51.273C22.9419 53.3067 18.7613 54.3453 15.1169 54.3449ZM29.0857 50.3788C24.6471 48.0473 20.2639 44.7857 16.2841 40.8063C13.61 38.1317 11.2512 35.2658 9.26234 32.2768C10.6167 31.3364 11.5058 29.7705 11.5058 28.0004C11.5058 27.8462 11.4994 27.6903 11.4857 27.5369L9.84852 27.6817C9.85792 27.7868 9.86262 27.8936 9.86262 28C9.86262 29.9636 8.26515 31.5607 6.30195 31.5607C4.33875 31.5607 2.74127 29.9636 2.74127 28C2.74127 26.0364 4.33875 24.4393 6.30195 24.4393C7.65803 24.4393 8.87867 25.193 9.48707 26.406L10.9559 25.6694C10.5543 24.8683 9.969 24.2048 9.26576 23.7173C11.2542 20.7308 13.6117 17.8662 16.2841 15.1937C20.2648 11.2131 24.6496 7.95061 29.0896 5.61913C32.1115 7.20977 35.1689 9.26055 38.131 11.7441C37.5764 12.5713 37.2525 13.5651 37.2525 14.6336C37.2525 17.503 39.5874 19.8375 42.4568 19.8375C43.5254 19.8375 44.5192 19.5136 45.3463 18.959C47.8299 21.9212 49.8802 24.979 51.4709 28.0004C49.1394 32.4404 45.8769 36.8252 41.8967 40.8063C41.4588 41.2438 41.0089 41.6787 40.5543 42.1047C39.6473 41.3374 38.4762 40.8734 37.1979 40.8734C36.0293 40.8734 34.9253 41.2519 34.005 41.9676L35.0142 43.2647C35.6431 42.7755 36.3985 42.517 37.1979 42.5166C39.1611 42.5166 40.7585 44.114 40.7585 46.0772C40.7585 48.0409 39.1611 49.6379 37.1979 49.6379C35.2347 49.6379 33.6372 48.0409 33.6372 46.0772C33.6372 45.4364 33.8089 44.8083 34.1345 44.261L32.722 43.4206C32.2456 44.2221 31.9936 45.1407 31.9936 46.0772C31.9936 46.9018 32.1871 47.6811 32.5298 48.3745C31.3783 49.1094 30.2282 49.7776 29.0857 50.3788ZM52.1481 51.0577C48.7908 54.4154 43.2545 55.243 36.5591 53.3896C34.6848 52.8705 32.7853 52.1582 30.887 51.2721C31.7526 50.7885 32.6186 50.2694 33.4821 49.7165C34.4276 50.6813 35.7435 51.2815 37.1979 51.2815C40.0672 51.2815 42.4021 48.9471 42.4021 46.0777C42.4021 45.0783 42.1185 44.1448 41.6284 43.351C42.1129 42.8977 42.5923 42.4345 43.0584 41.9684C46.8451 38.1813 50.005 34.0306 52.3655 29.7987C56.4252 38.468 56.591 46.6147 52.1481 51.0577Z" fill="#0C5295"/>
<path d="M42.5671 36.4911H40.8692V32.3507C40.8692 30.5195 39.6383 28.8934 37.8759 28.3961L37.2615 28.223L36.8155 29.8047L37.4299 29.9782C38.4869 30.2764 39.2256 31.2518 39.2256 32.3507V36.4911H36.2673V34.2451H34.6242V36.4911H27.2285V38.1343H42.5671V36.4911Z" fill="#0C5295"/>
<path d="M31.8087 28.3927L35.2335 29.3592L35.68 27.7771L32.3231 26.8303V24.6479C33.8429 23.6114 34.843 21.867 34.843 19.8926V17.4821C34.843 14.3107 32.2629 11.7301 29.091 11.7301C25.9196 11.7301 23.339 14.3107 23.339 17.4821V19.8926C23.339 21.867 24.3392 23.6114 25.8589 24.6479V26.8303L20.3064 28.3961C18.544 28.8935 17.3131 30.5196 17.3131 32.3507V36.4912H15.6152V38.1344H25.585V36.4912H23.5582V34.2451H21.915V36.4912H18.9567V32.3507C18.9567 31.2519 19.6954 30.2764 20.7524 29.9782L26.3733 28.3931C27.0654 29.1502 28.043 29.589 29.091 29.589C30.1391 29.589 31.117 29.1498 31.8087 28.3927ZM29.091 13.3737C31.3563 13.3737 33.1994 15.2169 33.1994 17.4826V18.3977L31.4721 16.1128H25.218C25.7833 14.5187 27.3056 13.3737 29.091 13.3737ZM24.9826 19.8926V17.7564H30.6543L33.0631 20.942C32.5979 22.7009 30.9935 24.0011 29.091 24.0011C26.8258 24.0011 24.9826 22.1579 24.9826 19.8926ZM27.5025 27.187V25.4195C28.0071 25.5652 28.5399 25.6447 29.091 25.6447C29.6422 25.6447 30.1745 25.5652 30.6795 25.4195V27.187C30.2933 27.6651 29.7148 27.9454 29.091 27.9454C28.4672 27.9454 27.8883 27.6651 27.5025 27.187Z" fill="#0C5295"/>
<path d="M33.4301 32.2653L31.1152 31.6124L31.5617 30.0308L33.8761 30.6836L33.4301 32.2653Z" fill="#0C5295"/>
<path d="M37.0379 31.5726L36.5914 33.1543L35.0098 32.7083L35.4562 31.1266L37.0379 31.5726Z" fill="#0C5295"/>
<path d="M41.6348 13.812H43.278V15.4556H41.6348V13.812Z" fill="#0C5295"/>
<path d="M36.377 45.2561H38.0201V46.8993H36.377V45.2561Z" fill="#0C5295"/>
<path d="M5.48047 27.1785H7.12409V28.8217H5.48047V27.1785Z" fill="#0C5295"/>
</g>
<defs>
<clipPath id="clip0_460_5017">
<rect width="56" height="56" fill="white" transform="translate(0.988281)"/>
</clipPath>
</defs>
</svg>
